<svg xmlns="http://www.w3.org/2000/svg" fill="none" viewBox="0 0 200 200" height="200" width="200"><g id="mobile-apps--communication-mobile-apps"><g id="ar"><path id="vector" fill="#000000" d="M55.557 73.838a0.5 0.5 0 0 0 0.46 -0.537l-0.414 -5.351a0.5 0.5 0 0 0 -0.997 0.077l0.414 5.351c0.02 0.268 0.252 0.481 0.537 0.46Z" stroke-width="1"></path><path id="vector_2" fill="#000000" d="M54.729 63.136a0.5 0.5 0 0 0 0.46 -0.537l-0.414 -5.35a0.501 0.501 0 0 0 -0.997 0.076l0.414 5.351a0.5 0.5 0 0 0 0.537 0.46Z" stroke-width="1"></path><path id="vector_3" fill="#000000" d="M56.43 78.652a0.5 0.5 0 1 0 -0.997 0.077l0.414 5.35a0.5 0.5 0 0 0 0.997 -0.077l-0.414 -5.35Z" stroke-width="1"></path><path id="vector_4" fill="#000000" d="M63.258 87.434c-5.064 0.652 -4.85 0.663 -5.168 0.663 -0.095 0.54 -0.097 0.78 -0.071 0a0.505 0.505 0 0 0 -0.517 0.483 0.498 0.498 0 0 0 0.483 0.516c0.525 0.012 0.417 -0.002 5.406 -0.67a0.5 0.5 0 0 0 -0.133 -0.992Z" stroke-width="1"></path><g id="group"><path id="vector_5" fill="#000000" d="M61.704 28.37c-0.984 -0.484 -2.199 -0.379 -3.566 -0.182 0.11 0.867 0.271 3.241 0.33 4.113 3.144 -0.603 3.52 -0.632 3.939 -0.933 0.909 -0.65 0.74 -2.289 -0.703 -2.998Z" stroke-width="1"></path><path id="vector_6" fill="#000000" d="M70.345 16.292c-0.042 -0.473 -0.39 -0.88 -0.954 -1.123 -2.71 -1.155 -28.06 1.82 -31.375 2.433 -1.423 0.127 -2.436 0.9 -2.355 1.703 -0.007 0.073 -0.686 7.402 0.518 16.907 1.199 9.466 2.393 15.737 2.398 15.75 0.095 1.063 1.496 1.441 2.601 1.352 6.127 0.283 26.927 -1.787 29.729 -2.662 1.423 -0.128 2.436 -0.899 2.357 -1.739 0.216 -7.668 -0.699 -24.266 -2.918 -32.622l-0.001 0.001Zm-16.732 24.18a0.751 0.751 0 0 1 -0.865 -0.614 39.081 39.081 0 0 0 -1.156 -4.873l-5.462 0.777c-0.129 1.571 -0.167 3.155 -0.203 4.715 -0.003 0.142 -0.114 0.74 -0.767 0.732a0.747 0.747 0 0 1 -0.732 -0.767c0.085 -3.689 0.173 -7.503 1.449 -11.115 0.267 -0.757 0.693 -1.672 1.625 -2.035 0.802 -0.314 1.789 -0.085 2.516 0.581 0.563 0.518 0.892 1.185 1.181 1.823a40.727 40.727 0 0 1 3.028 9.91 0.75 0.75 0 0 1 -0.613 0.864l-0.001 0.001Zm12.246 -0.893a0.75 0.75 0 0 1 -1.019 -0.295 31.702 31.702 0 0 0 -4.179 -5.877l-2.095 0.401c0.012 0.19 0.255 3.972 0.383 5.53a0.75 0.75 0 1 1 -1.495 0.121c-0.128 -1.565 -0.566 -8.383 -0.694 -9.939 -0.164 -2.008 -0.273 -1.697 -0.258 -1.998a0.75 0.75 0 0 1 1.203 -0.788c1.37 -0.203 3.142 -0.457 4.66 0.288 2.747 1.348 2.887 5.092 -0.028 6.021a33.156 33.156 0 0 1 3.817 5.516 0.75 0.75 0 0 1 -0.294 1.02l-0.001 0Z" stroke-width="1"></path><path id="vector_7" fill="#000000" d="M49.003 28.978c-0.298 -0.273 -0.691 -0.392 -0.955 -0.289 -0.95 0.372 -1.627 4.523 -1.758 5.536l4.828 -0.687c-0.316 -0.908 -1.407 -3.908 -2.115 -4.56Z" stroke-width="1"></path></g></g><g id="message"><path id="vector_8" fill="#000000" d="M132.683 79.24a87.97 87.97 0 0 0 -2.618 0.285c-0.653 0.08 -0.538 1.07 0.123 0.992a86.032 86.032 0 0 1 2.589 -0.282 0.5 0.5 0 0 0 -0.093 -0.995l-0.001 0Z" stroke-width="1"></path><path id="vector_9" fill="#000000" d="M138.072 76.867c-0.069 -0.664 -1.063 -0.552 -0.995 0.102 0.067 0.653 0.136 1.305 0.207 1.957 -0.659 0.028 -1.316 0.063 -1.974 0.105a0.5 0.5 0 0 0 0.064 0.998c2.679 -0.174 2.625 -0.047 2.843 -0.298 0.199 -0.231 0.132 -0.165 -0.146 -2.864h0.001Z" stroke-width="1"></path><path id="vector_10" fill="#000000" d="M135.652 57.773c0.073 1.602 0.158 3.204 0.254 4.806 0.04 0.664 1.037 0.59 0.998 -0.06 -0.096 -1.597 -0.18 -3.194 -0.253 -4.792a0.502 0.502 0 0 0 -0.522 -0.477 0.501 0.501 0 0 0 -0.477 0.523Z" stroke-width="1"></path><path id="vector_11" fill="#000000" d="M135.837 47.643a0.5 0.5 0 0 0 -0.491 0.51c0.028 1.603 0.068 3.207 0.119 4.811 0.003 0.108 0.103 0.496 0.516 0.483a0.499 0.499 0 0 0 0.483 -0.516c-0.051 -1.599 -0.09 -3.198 -0.118 -4.797a0.506 0.506 0 0 0 -0.509 -0.49Z" stroke-width="1"></path><path id="vector_12" fill="#000000" d="M136.69 66.845a0.499 0.499 0 0 0 -0.461 0.535c0.118 1.6 0.248 3.2 0.39 4.797a0.5 0.5 0 1 0 0.996 -0.088 333.671 333.671 0 0 1 -0.389 -4.783 0.504 0.504 0 0 0 -0.536 -0.46Z" stroke-width="1"></path><path id="vector_13" fill="#000000" d="M128.25 46.587c-1.462 0.12 -2.623 -0.477 -2.706 -1.397 -0.006 -0.016 -1.259 -6.6 -2.518 -16.54 -1.264 -9.98 -0.551 -17.674 -0.544 -17.75 -0.083 -0.836 0.971 -1.635 2.451 -1.767 3.144 -0.603 30.099 -3.769 32.937 -2.556 0.584 0.25 0.944 0.672 0.988 1.158 2.332 8.783 3.278 26.281 3.064 34.255 0.081 0.871 -0.973 1.67 -2.453 1.802 -2.809 0.863 -24.612 3.117 -31.219 2.795Zm-0.008 -1c7.587 0.096 26.824 -1.739 31.065 -2.779 1.066 -0.1 1.637 -0.563 1.617 -0.786 0 -0.129 0.163 -7.403 -0.64 -17.735 -0.801 -10.305 -2.391 -16.319 -2.407 -16.378 -0.07 -0.52 -1.137 -0.62 -1.672 -0.572 -8.661 0.04 -23.496 1.578 -31.149 2.788 -1.026 0.093 -1.597 0.555 -1.577 0.778 -0.008 0.168 -0.709 7.76 0.54 17.621 1.255 9.906 2.502 16.463 2.515 16.528 0.027 0.271 0.67 0.624 1.664 0.536l0.044 -0.002Z" stroke-width="1"></path><path id="vector_14" fill="#000000" d="M153.777 25.522c-0.564 -4.104 0.009 -9.562 -5.44 -9.271 -3.119 0.169 -13.816 1.098 -15.948 1.63 -3.051 0.765 -2.019 6.467 -1.668 9.385 0.294 2.456 0.695 5.819 2.875 6.374 0.552 0.197 1.174 0.23 1.778 0.209l-1.079 2.469c-0.192 0.439 0.291 0.874 0.707 0.634a20.13 20.13 0 0 0 4.383 -3.412c1.158 -0.087 9.737 -0.912 11.088 -1.03 1.242 -0.106 2.171 -0.537 2.763 -1.277 1.131 -1.418 0.832 -3.6 0.542 -5.71l-0.001 -0.001Zm-18.658 -4.286a284.99 284.99 0 0 1 11.984 -1.03c0.667 -0.04 0.721 0.957 0.064 0.999 -8.972 0.579 -11.409 1.028 -11.996 1.028 -0.628 0 -0.677 -0.931 -0.053 -0.997h0.001Zm0.511 3.3 8.115 -0.904a0.5 0.5 0 0 1 0.111 0.993l-8.171 0.909c-0.626 0 -0.677 -0.928 -0.055 -0.997Zm13.597 3.433c-0.133 0.013 -13.292 1.186 -13.394 1.186 -0.63 0 -0.676 -0.935 -0.049 -0.997 2.345 -0.233 11.008 -0.951 13.344 -1.184a0.5 0.5 0 0 1 0.099 0.995Z" stroke-width="1"></path></g><g id="camera"><path id="vector_15" fill="#000000" d="M51.665 109.812a1268.1 1268.1 0 0 0 -4.772 0.59c-0.652 0.082 -0.537 1.067 0.125 0.992 1.589 -0.2 3.178 -0.396 4.768 -0.59a0.502 0.502 0 0 0 0.437 -0.557 0.504 0.504 0 0 0 -0.557 -0.436l-0.001 0.001Z" stroke-width="1"></path><path id="vector_16" fill="#000000" d="M61.215 108.688c-1.593 0.181 -3.185 0.366 -4.776 0.553 -0.65 0.076 -0.55 1.06 0.116 0.993 1.591 -0.188 3.182 -0.372 4.773 -0.553a0.5 0.5 0 0 0 -0.113 -0.994v0.001Z" stroke-width="1"></path><path id="vector_17" fill="#000000" d="M70.774 107.637c-1.594 0.169 -3.188 0.341 -4.781 0.516a0.5 0.5 0 0 0 0.11 0.994c1.592 -0.175 3.184 -0.347 4.777 -0.515a0.5 0.5 0 1 0 -0.106 -0.995Z" stroke-width="1"></path><path id="vector_18" fill="#000000" d="M10.197 123.822c-1.105 0.087 -2.498 -0.288 -2.593 -1.349 -0.005 -0.012 -1.194 -6.259 -2.388 -15.688 -1.199 -9.468 -0.523 -16.769 -0.516 -16.842 -0.042 -0.378 0.227 -0.842 0.738 -1.178 0.426 -0.281 0.997 -0.465 1.61 -0.52 3.106 -0.61 28.62 -3.548 31.253 -2.423 0.563 0.241 0.91 0.649 0.952 1.12 2.201 8.29 3.1 24.68 2.906 32.494 0.041 0.414 -0.229 0.878 -0.74 1.214 -1.578 1.04 -14.457 2.221 -16.333 2.389 -3.537 0.317 -11.537 0.944 -14.89 0.782l0.001 0.001Zm30.673 -4.007c0.21 -0.138 0.299 -0.277 0.292 -0.347 0 -0.125 0.155 -7.024 -0.607 -16.823 -0.76 -9.782 -2.268 -15.474 -2.283 -15.53 -0.021 -0.155 -0.133 -0.276 -0.364 -0.374 -1.397 -0.597 -13.907 0.525 -15.419 0.67 -9.345 0.894 -15.26 1.816 -15.319 1.825 -0.477 0.044 -0.896 0.175 -1.182 0.363 -0.21 0.138 -0.299 0.277 -0.292 0.347 -0.007 0.164 -0.672 7.362 0.512 16.713 1.19 9.398 2.374 15.614 2.385 15.675 0.013 0.12 0.125 0.24 0.356 0.339 2.061 0.882 30.049 -1.625 31.921 -2.858Z" stroke-width="1"></path><g id="group_2"><path id="vector_19" fill="#000000" d="M23.439 102.21a2.128 2.128 0 0 0 -2.125 2.125c0 1.171 0.954 2.125 2.125 2.125a2.128 2.128 0 0 0 2.125 -2.125 2.128 2.128 0 0 0 -2.125 -2.125Z" stroke-width="1"></path><path id="vector_20" fill="#000000" d="M31.297 98.366c-0.039 -0.172 -0.176 -0.45 -0.645 -0.582 -1.116 -0.315 -10.092 0.636 -11.525 0.796l-0.194 -0.88a0.5 0.5 0 0 0 -0.486 -0.392 9.093 9.093 0 0 0 -2.146 0.245 0.501 0.501 0 0 0 -0.381 0.424l-0.126 1.006c-0.54 0.081 -1.155 0.327 -1.186 0.872 -0.054 0.341 -0.386 2.663 0.042 5.672 0.44 3.102 0.922 5.169 0.922 5.169 0.057 0.627 0.839 0.78 1.48 0.726 2.69 0 13.635 -0.938 14.689 -1.453 0.518 -0.252 0.542 -0.622 0.53 -0.689 0.196 -2.943 -0.052 -8.083 -0.976 -10.913l0.002 0Zm-7.858 9.094a3.128 3.128 0 0 1 -3.125 -3.125 3.129 3.129 0 0 1 3.125 -3.125 3.129 3.129 0 0 1 3.125 3.125 3.129 3.129 0 0 1 -3.125 3.125Z" stroke-width="1"></path></g></g><g id="facebook"><path id="vector_21" fill="#000000" d="M140.341 98.62a659.81 659.81 0 0 1 -4.438 0.444c-0.651 0.064 -0.572 1.049 0.096 0.996 1.484 -0.117 2.963 -0.292 4.445 -0.445a0.5 0.5 0 1 0 -0.103 -0.995Z" stroke-width="1"></path><path id="vector_22" fill="#000000" d="M149.207 97.64c-1.477 0.174 -2.954 0.342 -4.431 0.505 -0.655 0.073 -0.551 1.064 0.11 0.994 1.48 -0.164 2.959 -0.332 4.438 -0.505a0.5 0.5 0 0 0 -0.117 -0.993Z" stroke-width="1"></path><path id="vector_23" fill="#000000" d="M158.059 96.542c-1.474 0.193 -2.949 0.382 -4.424 0.565 -0.653 0.08 -0.539 1.07 0.123 0.992 1.478 -0.183 2.955 -0.372 4.431 -0.565a0.5 0.5 0 1 0 -0.13 -0.992Z" stroke-width="1"></path><path id="vector_24" fill="#000000" d="M192.794 73.702c-0.076 -0.85 -1.141 -1.4 -2.409 -1.281 -5.217 -0.235 -24.125 1.773 -27.453 2.454 -0.573 0.05 -1.109 0.225 -1.508 0.487 -0.485 0.32 -0.74 0.76 -0.7 1.119 -0.006 0.067 -0.633 6.832 0.478 15.603 1.106 8.732 2.211 14.526 2.211 14.526 0.089 1.005 1.397 1.366 2.438 1.283 4.686 0.208 26.881 -1.59 28.932 -2.943 0.485 -0.32 0.74 -0.761 0.702 -1.155 0.217 -7.058 -0.661 -22.442 -2.691 -30.093ZM182.63 86.397c0.062 1.542 0.183 3.082 0.364 4.614a62.79 62.79 0 0 1 -4.076 0.593c0.312 4.22 0.824 8.427 1.34 12.629 -1.735 0.427 -2.84 0.464 -4.728 0.399l-0.13 -0.065c-0.4 -4.404 -0.996 -8.44 -1.351 -12.58 -0.849 0.033 -1.699 0.054 -2.548 0.052 -0.083 0 -0.173 -0.003 -0.234 -0.058 -0.215 -0.188 -0.31 -2.727 -0.569 -4.292l0.043 -0.217 3.038 -0.275c-0.072 -2.84 -0.21 -5.026 1.167 -7.132 1.855 -2.84 6.028 -2.807 9.042 -2.855 0.412 1.567 0.673 3.174 0.781 4.79 -1.22 0.025 -3.661 0.244 -4.706 0.874 -1.195 0.72 -1.422 2.35 -1.415 3.882l3.983 -0.361 -0.001 0.002Z" stroke-width="1"></path></g><g id="e-shop"><path id="vector_25" fill="#000000" d="M145.703 130.402c-1.905 0.132 -3.832 0.296 -5.726 0.488a0.5 0.5 0 0 0 0.101 0.995c1.883 -0.191 3.798 -0.354 5.693 -0.486 0.656 -0.045 0.596 -1.036 -0.068 -0.997Z" stroke-width="1"></path><path id="vector_26" fill="#000000" d="M154.654 132.972c-0.071 -0.827 -0.136 -1.656 -0.195 -2.485a0.487 0.487 0 0 0 -0.51 -0.464c-0.835 0.019 -1.671 0.044 -2.506 0.075 -0.662 0.025 -0.624 1.027 0.037 1 0.672 -0.025 1.344 -0.046 2.016 -0.063 0.05 0.675 0.104 1.35 0.162 2.023a0.5 0.5 0 1 0 0.997 -0.085l-0.001 -0.001Z" stroke-width="1"></path><path id="vector_27" fill="#000000" d="M155.263 138.873a0.5 0.5 0 0 0 -0.993 0.12c0.238 1.966 0.513 3.954 0.818 5.908a0.5 0.5 0 1 0 0.988 -0.154 172.358 172.358 0 0 1 -0.813 -5.874Z" stroke-width="1"></path><path id="vector_28" fill="#000000" d="M151.344 185.175c-1.407 0.111 -2.521 -0.463 -2.601 -1.352 -0.005 -0.013 -1.198 -6.284 -2.398 -15.75 -1.204 -9.505 -0.525 -16.834 -0.518 -16.907 -0.042 -0.379 0.227 -0.844 0.74 -1.182 0.427 -0.281 1.001 -0.467 1.615 -0.522 4.172 -0.811 23.947 -2.904 29.758 -2.66 1.357 -0.124 2.491 0.454 2.572 1.35 2.215 8.343 3.111 24.804 2.917 32.621 0.078 0.84 -0.934 1.612 -2.357 1.739 -2.525 0.799 -23.345 2.969 -29.729 2.662l0.001 0.001Zm-0.008 -1.001c7.202 0.092 25.467 -1.645 29.575 -2.645 0.989 -0.094 1.539 -0.525 1.521 -0.723 0 -0.125 0.155 -7.051 -0.609 -16.888 -0.762 -9.81 -2.276 -15.534 -2.291 -15.591 -0.033 -0.283 -0.649 -0.61 -1.567 -0.527 -7.814 -0.037 -22.782 1.57 -29.659 2.655 -0.479 0.044 -0.9 0.176 -1.187 0.365 -0.211 0.139 -0.301 0.279 -0.294 0.35 -0.007 0.164 -0.675 7.39 0.514 16.779 1.195 9.435 2.383 15.675 2.395 15.737 0.025 0.247 0.642 0.573 1.559 0.491a0.677 0.677 0 0 1 0.045 -0.002l-0.002 -0.001Z" stroke-width="1"></path><path id="vector_29" fill="#000000" d="M172.795 162.702c-0.123 -1.004 -0.584 -1.333 -1.441 -1.31 -0.758 0.02 -1.505 0.047 -2.239 0.082l-0.772 -3.736a0.75 0.75 0 0 0 -0.684 -0.597 21.27 21.27 0 0 0 -5.54 0.356c-0.916 0.18 -1.388 0.596 -1.547 1.689a18.361 18.361 0 0 0 -0.184 3.17c-0.762 0.125 -1.501 0.262 -2.218 0.41a0.5 0.5 0 0 0 -0.398 0.468c-0.11 2.577 -0.126 5.975 0.728 9.401 0.272 1.088 0.753 1.618 1.989 1.618 1.736 0 6.147 -0.384 10.099 -1.117 2.101 -0.39 2.558 -1.192 2.591 -2.703a53.977 53.977 0 0 0 -0.384 -7.73v-0.001Zm-6.924 8.299c0.07 0.293 0.1 0.594 0.089 0.896a0.495 0.495 0 0 1 -0.518 0.481 0.497 0.497 0 0 1 -0.481 -0.518 2.335 2.335 0 0 0 -0.106 -0.788c-0.042 -0.136 0.041 -0.063 -0.241 -0.155a3.236 3.236 0 0 1 -1.589 -1.142 0.499 0.499 0 1 1 0.803 -0.595c0.521 0.703 1.378 0.97 1.856 0.837a0.925 0.925 0 0 0 0.645 -0.771 0.925 0.925 0 0 0 -0.494 -0.875c-0.41 -0.198 -1.063 -0.14 -1.624 -0.517 -1.019 -0.682 -0.981 -2.484 0.389 -3.056v-0.825a0.5 0.5 0 0 1 1 0v0.692c1.264 0.146 2.047 1.351 1.304 1.689a0.501 0.501 0 0 1 -0.662 -0.248c-0.204 -0.446 -1.115 -0.671 -1.562 -0.165 -0.263 0.295 -0.232 0.868 0.088 1.083 0.33 0.221 0.95 0.179 1.502 0.447 1.596 0.772 1.315 3.147 -0.399 3.528v0.002Zm-3.988 -8.872c-0.023 -1.248 0.154 -2.926 0.255 -3.086 0.115 -0.076 2.362 -0.528 4.853 -0.435l0.61 2.951a77.2 77.2 0 0 0 -5.718 0.57Z" stroke-width="1"></path></g><g id="calculator"><path id="vector_30" fill="#000000" d="m73.843 130.38 -5.509 0.815a0.5 0.5 0 0 0 0.147 0.989l5.509 -0.815c0.652 -0.097 0.511 -1.084 -0.147 -0.989Z" stroke-width="1"></path><path id="vector_31" fill="#000000" d="m62.825 132.01 -2.473 0.366a0.5 0.5 0 0 0 -0.427 0.489l-0.026 2.501a0.499 0.499 0 1 0 1 0.008l0.021 -2.072 2.051 -0.303a0.5 0.5 0 0 0 -0.146 -0.989Z" stroke-width="1"></path><path id="vector_32" fill="#000000" d="M60.358 144.382a0.5 0.5 0 0 0 0.5 -0.5c0 -1.418 0.005 -2.835 0.012 -4.253a0.5 0.5 0 0 0 -1 -0.004c-0.007 1.419 -0.011 2.838 -0.012 4.258a0.5 0.5 0 0 0 0.5 0.499Z" stroke-width="1"></path><path id="vector_33" fill="#000000" d="M60.386 152.893a0.502 0.502 0 0 0 0.5 -0.504c-0.01 -1.418 -0.018 -2.836 -0.023 -4.254a0.5 0.5 0 0 0 -0.5 -0.498 0.51 0.51 0 0 0 -0.5 0.502c0.005 1.419 0.013 2.838 0.023 4.257a0.5 0.5 0 0 0 0.5 0.497Z" stroke-width="1"></path><path id="vector_34" fill="#000000" d="M66.247 156.636c-0.042 -0.472 -0.391 -0.881 -0.955 -1.123 -2.708 -1.159 -28.074 1.821 -31.375 2.432 -0.614 0.056 -1.188 0.241 -1.615 0.522 -0.512 0.338 -0.782 0.802 -0.739 1.182 -0.007 0.073 -0.687 7.402 0.518 16.907 1.199 9.466 2.393 15.737 2.397 15.75 0.096 1.064 1.493 1.441 2.601 1.353 6.537 0.301 27.254 -1.879 29.729 -2.662 1.423 -0.127 2.436 -0.899 2.357 -1.739 0.179 -8.46 -0.747 -24.442 -2.917 -32.621l-0.001 -0.001Zm-27.591 11.227a0.751 0.751 0 0 1 0.7 -0.797c0.964 -0.062 1.93 -0.151 2.895 -0.265l-0.171 -2.359a0.75 0.75 0 1 1 1.496 -0.108l0.164 2.271a53.698 53.698 0 0 0 2.572 -0.439 0.75 0.75 0 1 1 0.288 1.472c-0.911 0.178 -1.829 0.333 -2.751 0.467l0.25 3.453a0.75 0.75 0 0 1 -1.496 0.109l-0.244 -3.367c-0.968 0.114 -1.938 0.202 -2.906 0.265a0.75 0.75 0 0 1 -0.797 -0.7v-0.002Zm8.859 16.653a0.75 0.75 0 0 1 -1.061 0.013 39.831 39.831 0 0 0 -2.037 -1.856l-1.864 2.879a0.75 0.75 0 1 1 -1.259 -0.815l1.956 -3.021a40.226 40.226 0 0 0 -2.214 -1.629 0.75 0.75 0 1 1 0.847 -1.238c0.745 0.51 1.475 1.045 2.187 1.603l1.319 -2.037a0.75 0.75 0 1 1 1.26 0.815l-1.407 2.174c0.78 0.657 1.536 1.342 2.263 2.052a0.75 0.75 0 0 1 0.013 1.061l-0.003 -0.001Zm6.823 -17.341a0.75 0.75 0 0 1 0.577 -0.89 25.596 25.596 0 0 1 5.748 -0.56 0.75 0.75 0 1 1 -0.026 1.5 23.85 23.85 0 0 0 -5.409 0.526 0.75 0.75 0 0 1 -0.89 -0.577v0.001Zm5.325 9.975c-0.06 0.459 -0.447 0.846 -0.914 0.846 -1.333 0 -1.318 -1.335 -0.446 -1.765 0.683 -0.336 1.458 0.174 1.36 0.919Zm-0.312 7.096c-0.44 0 -0.85 -0.457 -0.956 -0.835 -0.296 -1.046 1.253 -1.545 1.752 -0.627 0.337 0.62 -0.188 1.462 -0.796 1.462Zm2.17 -3.696 -5.33 0.586a0.75 0.75 0 0 1 -0.082 -1.495l5.247 -0.582a0.75 0.75 0 1 1 0.165 1.491Z" stroke-width="1"></path></g><g id="phone"><path id="vector_35" fill="#000000" d="M137.147 161.923c-0.01 -0.144 -0.727 -14.817 -3.875 -53.272 -3.15 -38.48 -5.212 -48.305 -5.224 -48.34 -0.161 -1.8 -1.764 -3.133 -3.473 -2.974 -0.177 -0.014 -4.552 -0.34 -25.125 1.502 -22.712 2.034 -23.654 2.866 -26.189 3.093 -3.762 0.337 -5.889 2.992 -5.732 4.754l0.059 -0.006c-0.676 5.122 6.902 89.262 8.814 99.095 0.292 3.266 4.361 4.429 7.379 4.199 9.789 0.39 44.173 -2.499 50.389 -4.512 1.833 -0.164 3.099 -1.787 2.976 -3.539h0.001Zm-3.153 2.559c-0.063 0.017 -6.527 1.749 -25.086 3.264 -19.814 1.617 -24.749 1.187 -25.181 1.229a2.28 2.28 0 0 1 -2.476 -2.082c-0.027 -0.227 -2.729 -23.081 -5.638 -55.923 -2.907 -32.832 -3.447 -45.505 -3.457 -45.653 -0.085 -1.254 0.815 -2.362 2.145 -2.487 5.035 -1.285 40.53 -4.753 50.278 -4.496 1.252 -0.111 2.362 0.815 2.483 2.128 0.02 0.095 2.072 9.9 5.213 48.271 3.146 38.433 3.862 53.095 3.874 53.259 0.083 1.176 -0.699 2.343 -2.155 2.49Z" stroke-width="1"></path><path id="vector_36" fill="#000000" d="M87.08 155.345a3.28 3.28 0 0 1 -3.493 -2.98c-0.02 -0.134 -2.345 -16.334 -5.016 -40.739 -2.674 -24.427 -2.503 -43.065 -2.501 -43.25 -0.156 -1.687 1.124 -3.344 2.977 -3.51 0.021 -0.008 8.252 -1.767 21.299 -3.084 13.585 -1.372 19.244 -0.696 19.907 -0.605a3.288 3.288 0 0 1 3.499 2.98c0.021 0.101 2.764 15.077 4.88 40.52 2.115 25.433 2.633 43.271 2.638 43.449 0.157 1.749 -1.142 3.328 -2.909 3.522 -7.862 2.787 -34.405 4.807 -41.281 3.697Zm20.7 -1.431c16.264 -1.456 19.908 -3.207 20.423 -3.255a2.283 2.283 0 0 0 2.068 -2.474c-0.721 -21.884 -3.524 -62.363 -7.51 -83.893 -0.118 -1.299 -1.233 -2.225 -2.48 -2.114 -0.206 0.016 -5.487 -0.85 -19.836 0.6 -12.991 1.311 -21.168 3.058 -21.25 3.075 -1.395 0.133 -2.236 1.284 -2.128 2.483 0 0.235 -0.169 18.818 2.498 43.181 2.67 24.389 4.992 40.572 5.015 40.732a2.28 2.28 0 0 0 2.477 2.094c0.462 -0.038 4.646 1.01 20.723 -0.43v0.001Z" stroke-width="1"></path><path id="vector_37" fill="#000000" d="M124.492 124.161c-0.037 -0.405 -0.437 -0.664 -0.885 -0.62 -1.46 -0.021 -5.028 0.373 -5.822 0.517 -0.512 0.046 -0.858 0.374 -0.822 0.683 -0.195 1.766 0.229 4.579 0.544 6.182 0.034 0.374 0.376 0.625 0.832 0.625 2.53 0 6.172 -0.521 5.875 -0.521 0.565 -0.05 0.857 -0.45 0.824 -0.719 0.059 -3.243 -0.391 -5.576 -0.547 -6.146l0.001 -0.001Zm-0.449 5.883c-1.078 0.225 -4.466 0.529 -5.591 0.501 -0.37 -2.045 -0.603 -3.813 -0.512 -5.5 1.161 -0.173 4.506 -0.549 5.62 -0.505 0.366 1.611 0.488 3.852 0.483 5.504Z" stroke-width="1"></path><path id="vector_38" fill="#000000" d="M118.907 145.121c-0.34 -1.733 -0.73 -4.425 -0.544 -6.182 -0.045 -0.198 0.241 -0.63 0.822 -0.682 0.563 -0.125 4.625 -0.563 5.821 -0.517 0.406 -0.042 0.848 0.205 0.885 0.622 -0.031 -0.191 0.646 2.501 0.547 6.144 0.034 0.347 -0.312 0.673 -0.824 0.719 0.421 0 -3.969 0.572 -5.794 0.518 -0.454 0.028 -0.874 -0.195 -0.913 -0.622Zm0.945 -0.378c0.374 0.011 3.992 -0.161 5.591 -0.501 0.006 -1.635 -0.117 -3.894 -0.483 -5.504 -1.069 -0.05 -4.451 0.331 -5.619 0.505 -0.096 1.783 0.164 3.573 0.511 5.5Z" stroke-width="1"></path><path id="vector_39" fill="#000000" d="M95.659 140.547c-0.037 -0.418 -0.482 -0.665 -0.885 -0.622 -1.299 -0.039 -5.4 0.415 -5.822 0.518 -0.56 0.051 -0.857 0.451 -0.821 0.682 -0.195 1.766 0.229 4.578 0.544 6.181 0.03 0.334 0.333 0.645 0.913 0.623 1.92 0.044 6.173 -0.519 5.794 -0.519 0.567 -0.051 0.857 -0.452 0.824 -0.719 0.086 -3.15 -0.525 -6.394 -0.546 -6.144h-0.001Zm-0.449 5.881c-1.002 0.219 -4.565 0.538 -5.59 0.501 -0.37 -2.045 -0.603 -3.813 -0.512 -5.5 1.229 -0.183 4.48 -0.545 5.62 -0.505 0.364 1.607 0.489 3.863 0.482 5.504Z" stroke-width="1"></path><path id="vector_40" fill="#000000" d="M89.474 116.977c-1.342 0 -2.368 -0.361 -3.595 -1.698 -1.052 -1.145 -1.037 -3.441 -0.322 -4.652 0.522 -0.884 1.619 -1.835 2.797 -1.835 0.43 -0.13 30.158 -2.853 31.838 -2.854 0.956 0 1.897 0.439 2.372 0.7 0.958 0.528 1.556 1.454 1.682 2.606 0.152 1.381 -0.399 2.926 -1.339 3.756 -1.265 1.116 -6.718 1.666 -6.773 1.672 -3.686 0.364 -26.458 2.305 -26.658 2.305h-0.002Zm-0.431 -1.016c1.133 0.086 25.886 -2.175 26.991 -2.284 2.498 -0.247 5.589 -0.879 6.21 -1.427 1.243 -1.097 1.557 -3.787 -0.164 -4.736 -0.666 -0.367 -1.393 -0.564 -1.89 -0.576 -1.284 0.002 -31.685 2.842 -31.786 2.852 -0.793 0.003 -1.602 0.695 -1.986 1.346 -0.515 0.873 -0.526 2.68 0.197 3.467 0.834 0.909 1.515 1.289 2.428 1.358Z" stroke-width="1"></path><path id="vector_41" fill="#000000" d="M108.372 166.179a5.298 5.298 0 0 1 -5.269 -4.827c-0.419 -4.681 5.071 -7.553 8.677 -4.539 3.803 3.177 1.528 9.366 -3.408 9.366Zm-4.273 -4.917c0.344 3.835 5.152 5.282 7.582 2.374a4.296 4.296 0 0 0 -0.542 -6.056c-2.932 -2.45 -7.38 -0.107 -7.04 3.682Z" stroke-width="1"></path><path id="vector_42" fill="#000000" d="M86.566 82.227a3.458 3.458 0 0 1 -3.454 -3.454 3.459 3.459 0 0 1 3.454 -3.454 3.459 3.459 0 0 1 3.454 3.454 3.459 3.459 0 0 1 -3.454 3.454Zm0 -5.908a2.457 2.457 0 0 0 -2.454 2.454 2.457 2.457 0 0 0 2.454 2.454 2.457 2.457 0 0 0 2.454 -2.454 2.457 2.457 0 0 0 -2.454 -2.454Z" stroke-width="1"></path><path id="vector_43" fill="#000000" d="M83.125 86.46c-0.63 0 -0.676 -0.935 -0.049 -0.998 4.406 -0.44 8.857 -1.01 13.231 -1.693a0.5 0.5 0 0 1 0.154 0.988c-3.496 0.546 -12.31 1.703 -13.336 1.703Z" stroke-width="1"></path><path id="vector_44" fill="#000000" d="M83.243 89.196c8.607 -1.195 8.431 -1.273 9.205 -0.961a0.5 0.5 0 0 1 -0.374 0.928c-0.472 -0.19 -0.507 -0.103 -8.694 1.024 -0.664 0.09 -0.786 -0.901 -0.137 -0.991Z" stroke-width="1"></path><path id="vector_45" fill="#000000" d="M114.749 65.768c-0.627 0 -0.677 -0.928 -0.054 -0.997a105.25 105.25 0 0 0 5.721 -0.79 0.5 0.5 0 0 1 0.164 0.986c-1.477 0.246 -5.389 0.8 -5.831 0.8Z" stroke-width="1"></path><path id="vector_46" fill="#000000" d="M80.264 69.175c-0.618 0 -0.68 -0.909 -0.069 -0.995l5.256 -0.736a0.5 0.5 0 1 1 0.138 0.99l-5.325 0.741Z" stroke-width="1"></path><path id="vector_47" fill="#000000" d="M104.458 125.739c-0.037 -0.405 -0.437 -0.661 -0.885 -0.62 -1.488 -0.023 -5.338 0.412 -5.821 0.517 -0.562 0.05 -0.858 0.452 -0.822 0.683 -0.183 1.781 0.2 4.425 0.544 6.182 0.031 0.347 0.352 0.652 0.913 0.622 1.873 0.047 6.167 -0.518 5.794 -0.518 0.569 -0.051 0.858 -0.453 0.824 -0.72 0.053 -1.445 -0.127 -4.601 -0.547 -6.146Zm-3.739 5.217a0.5 0.5 0 0 1 -0.577 -0.409c-0.16 -0.937 -0.507 -1.939 -0.758 -2.413 -0.271 0.787 -0.292 1.668 -0.312 2.521a0.498 0.498 0 0 1 -0.5 0.488 0.497 0.497 0 0 1 -0.5 -0.511c0.022 -0.989 0.061 -3.196 0.962 -3.549 0.31 -0.122 0.683 -0.041 0.951 0.205 0.534 0.492 1.017 2.355 1.142 3.091a0.5 0.5 0 0 1 -0.408 0.577Zm2.787 -0.241c-0.463 0 -0.509 -0.479 -0.892 -1.132a2.011 2.011 0 0 1 -0.41 0.093 0.5 0.5 0 0 1 -0.106 -0.994c0.125 -0.015 0.437 -0.104 0.521 -0.263 0.06 -0.112 0.02 -0.314 -0.112 -0.568 -0.066 -0.128 -0.13 -0.253 -0.158 -0.272 0 0 -0.139 -0.077 -0.866 0.111a0.498 0.498 0 1 1 -0.251 -0.967c1.372 -0.357 1.77 -0.095 2.141 0.626 0.285 0.551 0.4 1.145 0.059 1.656 0.203 0.33 0.338 0.659 0.51 0.969a0.501 0.501 0 0 1 -0.438 0.741h0.002Z" stroke-width="1"></path><path id="vector_48" fill="#000000" d="M122.686 126.395a0.59 0.59 0 0 0 -0.625 -0.38s-0.307 -0.002 -1.11 0.073c-0.271 0.024 -0.131 0.063 -0.183 -0.175 -0.092 -0.423 -0.506 -0.441 -0.928 -0.342a0.5 0.5 0 0 0 -0.38 0.425c-0.021 0.171 -0.04 0.248 -0.024 0.348 -0.455 0.325 -0.191 1.699 -0.073 2.21 0.028 0.253 0.245 0.49 0.614 0.49 0.583 0 1.988 -0.146 2.297 -0.202 0.419 -0.04 0.615 -0.336 0.592 -0.533 0.044 -0.488 -0.019 -1.451 -0.18 -1.914Zm-1.649 1.765a0.67 0.67 0 1 1 0.001 -1.34 0.67 0.67 0 0 1 -0.001 1.34Z" stroke-width="1"></path><path id="vector_49" fill="#000000" d="M94.1 143.479c-0.025 -0.371 0.006 -0.885 -0.419 -1.041 -0.282 -0.103 -0.622 -0.035 -0.913 -0.013 -0.116 0.009 -1.851 0.153 -2.141 0.237 -0.442 0.129 -0.443 0.682 -0.388 1.137 0.092 0.759 0.144 1.094 0.899 1.037 -0.11 0.339 -0.16 0.713 -0.23 1.056 -0.025 0.121 0.115 0.21 0.209 0.122 0.456 -0.432 0.923 -0.855 1.359 -1.306 1.213 -0.099 1.377 -0.13 1.529 -0.257 0.283 -0.236 0.12 -0.666 0.094 -0.973l0.001 0.001Z" stroke-width="1"></path><path id="vector_50" fill="#000000" d="M115.692 138.968c-0.036 -0.417 -0.479 -0.664 -0.885 -0.622 -1.111 -0.051 -5.267 0.396 -5.821 0.517 -0.513 0.046 -0.859 0.374 -0.822 0.683 -0.183 1.78 0.2 4.425 0.544 6.181 0.029 0.335 0.339 0.625 0.836 0.625 2.531 0 6.163 -0.521 5.871 -0.521 0.572 -0.052 0.856 -0.456 0.824 -0.72 0.089 -3.251 -0.547 -6.438 -0.547 -6.144v0.001Zm-3.046 3.428c0.012 0.287 0.034 0.573 0.068 0.858 -0.251 0.046 -0.504 0.081 -0.758 0.11 0.058 0.785 0.153 1.566 0.25 2.348 -0.293 0.072 -0.802 0.113 -0.903 0.062 -0.075 -0.819 -0.186 -1.569 -0.251 -2.339 -0.033 0 -0.493 0.021 -0.517 0 -0.011 -0.01 -0.014 -0.025 -0.017 -0.04 -0.04 -0.24 -0.05 -0.518 -0.089 -0.758l0.008 -0.041 0.564 -0.051c-0.013 -0.527 -0.039 -0.934 0.217 -1.326 0.345 -0.528 1.121 -0.522 1.681 -0.531 0.077 0.291 0.125 0.59 0.145 0.891 -0.968 0.02 -1.141 0.246 -1.138 0.884l0.74 -0.067Z" stroke-width="1"></path><path id="vector_51" fill="#000000" d="M124.29 141.497c-0.03 -0.256 -0.138 -0.212 -0.581 -0.188l-0.391 -0.584a0.5 0.5 0 0 0 -0.487 -0.217l-1.101 0.157a0.5 0.5 0 0 0 -0.427 0.448l-0.046 0.491a19.55 19.55 0 0 0 -0.735 0.141c-0.015 0.486 0.56 1.875 0.629 1.938 0.081 0.073 0.203 0.074 0.312 0.069a16.101 16.101 0 0 0 2.275 -0.258c0.175 -0.032 0.373 -0.083 0.458 -0.24 0.017 -0.031 0.134 -1.426 0.093 -1.758l0.001 0.001Z" stroke-width="1"></path><path id="vector_52" fill="#000000" d="M105.857 139.939c-0.036 -0.418 -0.482 -0.664 -0.885 -0.622 -1.472 -0.023 -5.17 0.391 -5.821 0.517 -0.281 0.025 -0.527 0.141 -0.674 0.317 -0.111 0.133 -0.164 0.297 -0.148 0.366 -0.194 1.761 0.229 4.576 0.544 6.181 0.021 0.242 0.184 0.448 0.435 0.551 0.65 0.267 5.538 -0.271 6.272 -0.446 0.562 -0.051 0.854 -0.439 0.823 -0.719 0.116 -3.192 -0.563 -6.433 -0.546 -6.145Zm-6.306 1.984a0.5 0.5 0 0 1 0.467 -0.531c0.086 -0.005 0.172 -0.018 0.259 -0.025 -0.323 -0.459 0.227 -1.01 0.707 -0.712 0.178 0.11 0.263 0.271 0.286 0.584l0.156 -0.029a0.5 0.5 0 0 1 0.192 0.982c-0.092 0.018 -0.183 0.034 -0.275 0.05l0.03 0.407a0.5 0.5 0 0 1 -0.997 0.073l-0.025 -0.35c-0.089 0.008 -0.179 0.015 -0.268 0.021a0.5 0.5 0 0 1 -0.531 -0.467l-0.001 -0.003Zm2.08 3.845c-0.233 0 -0.337 -0.133 -0.464 -0.252 -0.176 0.271 -0.278 0.493 -0.591 0.493a0.5 0.5 0 0 1 -0.419 -0.772l0.234 -0.363a8.552 8.552 0 0 0 -0.194 -0.138 0.5 0.5 0 1 1 0.565 -0.825c0.059 0.04 0.117 0.081 0.174 0.122l0.076 -0.116a0.5 0.5 0 0 1 0.838 0.543l-0.132 0.204c0.089 0.08 0.177 0.162 0.262 0.246a0.5 0.5 0 0 1 -0.349 0.858Zm1.585 -4.533a5.76 5.76 0 0 1 1.278 -0.125 0.5 0.5 0 0 1 -0.017 1 4.641 4.641 0 0 0 -1.052 0.102c-0.654 0.141 -0.849 -0.841 -0.209 -0.978v0.001Zm1.506 3.653a0.658 0.658 0 0 1 -0.147 0.487c-0.33 0.363 -0.894 0.068 -0.916 -0.368 -0.753 0.081 -0.794 -0.919 -0.159 -0.989l0.042 -0.005c-0.055 -0.416 0.432 -0.823 0.855 -0.547 0.138 0.09 0.229 0.262 0.238 0.429 0.625 -0.018 0.706 0.902 0.087 0.994v-0.001Z" stroke-width="1"></path></g></g></svg>