<svg xmlns="http://www.w3.org/2000/svg" viewBox="0 0 200 200" height="200" width="200"><g fill="#000000"><path d="M27.2 46.22a3 3 0 0 1 1.57 0.38c0.1 0 0.17 -0.08 0.12 -0.15a1.42 1.42 0 0 0 -1.72 -0.45 0.1 0.1 0 0 0 0.03 0.22zm35.24 19.12c-0.43 -0.74 0 -1.24 0.73 -1.73a6.41 6.41 0 0 1 2.08 -0.81 0.09 0.09 0 1 0 0 -0.17c-1.66 0 -4 1.54 -2.86 2.78 0 -0.07 0.03 -0.07 0.05 -0.07zM22.89 47.61c0.1 0 0.1 -0.17 0 -0.17a1.43 1.43 0 0 0 -1.54 0.88c0 0.1 0.07 0.18 0.15 0.1a3.12 3.12 0 0 1 1.39 -0.81zm5.57 1.45c-0.33 0.06 -0.09 1.33 0.25 1.26s0.11 -1.32 -0.25 -1.26zm-5.27 2.86c0.33 -0.05 0.08 -1.34 -0.25 -1.29s-0.1 1.37 0.25 1.29zm1.93 4.38 -2.28 -0.71a0.25 0.25 0 0 0 -0.3 0.33 1.61 1.61 0 0 0 2.63 0.78 0.22 0.22 0 0 0 -0.05 -0.4zm0.81 -6.81A13.07 13.07 0 0 1 27.52 52c0.54 1.32 0 1.6 -1.16 1.7a0.13 0.13 0 0 0 0 0.25c1.65 0.16 2.18 -0.73 1.59 -2.12a8.7 8.7 0 0 0 -1.82 -2.56c-0.13 -0.06 -0.28 0.09 -0.2 0.22z" stroke-width="1"></path><path d="M194.84 98.53a31.1 31.1 0 0 0 -1.84 -9.44c0.59 -4.16 0.69 -8 -0.12 -10.89 -1.77 -6.41 -8.94 -11.62 -14.92 -14.36a7.38 7.38 0 0 0 -0.91 -1.57 0.17 0.17 0 0 0 -0.2 -0.05l-0.38 0.26c-0.1 -1.75 -0.33 -4.46 -0.28 -7 3.52 -1.62 3.47 -6.26 3.42 -7.9a9.58 9.58 0 0 1 -3.42 -1.19s-0.13 -0.08 -0.1 -0.13 0.15 0 0.15 0a11.38 11.38 0 0 0 3.52 0.88c1.85 -4.18 0.15 -6.58 -3.54 -8.4 -2.71 -1.35 -4.51 -1.47 -5.9 -2.71 -2.59 -2.28 -3.85 -2.94 -5.72 -2.94 -4.84 0 -6.56 7.49 -3.45 11.93a30.51 30.51 0 0 0 0.23 8.3c-0.81 1.24 -0.18 1.8 -0.73 2.79 -0.46 0.83 0.22 2.65 0.22 2.68a3.5 3.5 0 0 0 0.66 1.82c0.33 0.38 0.41 0.91 0.84 1.19a2.57 2.57 0 0 0 1.92 1.07l-0.23 0.76c-0.38 -0.58 -0.43 -0.41 -2 1h-0.1c-9.94 1.28 -16.33 12 -20.53 21.09 -14.73 4.26 -16.11 5.26 -17.57 5.75 -0.31 0.1 -0.31 0.35 -0.26 0.65 -0.68 0.26 -2.25 0.41 -3.57 0.94 -2.78 1.14 -2.78 2.36 -2.6 2.94 -0.26 0.4 -0.61 1.32 -0.36 1.47a3.15 3.15 0 0 0 -0.66 1.11l-3.08 -12.78a2.6 2.6 0 0 0 -2.55 -2H93.51a1.58 1.58 0 0 0 -1.12 0.5 7.84 7.84 0 0 0 -0.91 1 1.81 1.81 0 0 0 -0.35 1.55L94 99.22c-12.33 0.17 -23.57 0.7 -31.72 1.54 0.2 -2.2 0.4 -5.06 0.4 -5l0.6 -6.76c0 -0.46 -0.59 -0.61 -0.69 -0.71 1.24 -7 1.27 -15.62 1 -22.3 3.41 -1 2.5 -2.18 4.15 -3l1.37 -0.71s1.26 -0.48 1.36 -0.79a0.44 0.44 0 0 0 0 -0.28c-0.31 -0.92 -2.13 -0.44 -3.06 -0.12a5.41 5.41 0 0 1 1.06 -1c0.69 -0.46 1.09 -0.76 1 -1.09 -0.11 -0.65 -1.07 -0.43 -1.7 -0.18a9.67 9.67 0 0 0 -2.17 1.39 5.79 5.79 0 0 1 0.61 -1.21c0.43 -0.66 0.1 -1.09 -0.43 -1.06s-1 0.61 -2.05 2.2a3.28 3.28 0 0 1 -1.73 1.5c-0.25 -0.91 -0.6 -0.86 -0.55 -1.7v-0.83c-0.1 -0.86 -1 -1.24 -1.32 -0.86s-0.15 0.4 -0.13 0.88a5.86 5.86 0 0 1 -0.4 3.12c-0.56 1.39 -0.23 1.85 0.23 3.16a67.11 67.11 0 0 0 -6.23 13.9c-1 -1 -4.08 -3.74 -5.09 -4.6 -4.56 -3.9 -11.9 -10.46 -17.8 -10.06 1 1.75 0.28 5.93 -1.37 7.65 -0.05 0 -0.15 0.15 -0.25 0a5.73 5.73 0 0 0 -2.94 -2.56c-0.15 0 -0.07 -0.28 0.08 -0.25a5.59 5.59 0 0 1 3 2.32c1.84 -2.22 3.28 -8.81 -2.23 -9.26 -0.21 -0.58 -0.41 -1.16 -0.58 -1.75 1.72 -0.17 3.49 -0.6 4.55 -1.94 2.36 -3 -0.38 -10.94 -1.72 -14.51 1.14 -1 2.08 -4.16 -0.33 -5.78a0.79 0.79 0 0 1 -0.35 -0.68A2.78 2.78 0 0 0 26 35a3.18 3.18 0 0 0 -3.16 1.34 0.3 0.3 0 0 1 -0.41 0.08 3.6 3.6 0 0 0 -5.77 1.82 0.45 0.45 0 0 1 -0.58 0.3c-2.76 -1 -5 0.84 -4.44 3.07a0.35 0.35 0 0 1 -0.32 0.45 2.8 2.8 0 0 0 -1.82 4.67 0.58 0.58 0 0 1 -0.1 0.81c-1.8 1.46 -1.17 4.28 0.6 5.24a0.37 0.37 0 0 1 0.18 0.48c-0.66 1.8 1.32 3.92 3.19 3.67 0.68 -0.1 2.25 1.47 3.06 3.8 0.26 1.11 0.46 2.28 0.61 3.42 -4.4 2.3 -1.62 8.23 3.52 9.19 0.15 -0.51 0.71 -2.31 1.47 -2.51a0.53 0.53 0 0 1 0.58 0.18 20.38 20.38 0 0 1 2.38 4.15c0.08 0.15 -0.23 0.25 -0.3 0.1 -0.31 -0.63 -1.93 -4.35 -2.58 -4.18s-1.11 2.08 -1.32 2.69a0.18 0.18 0 0 1 -0.15 0.1c-3.8 -0.66 -6.26 -4 -6.08 -6.63a17.94 17.94 0 0 0 -9.44 18.05 31.78 31.78 0 0 0 2.28 7.6C7.4 93 4.31 108 10 119.7A19.6 19.6 0 0 0 25.52 131c4.63 7.94 3.75 17.63 3.75 26.74 -6.86 0.23 -13.75 1.44 -13.75 3.37v2.17c0 2.13 8.28 3.6 16.31 3.6s16.3 -1.47 16.3 -3.6v-2.17c0 -2 -7 -3.17 -13.92 -3.37v-3.47c-0.09 -8.14 -0.25 -16.81 4 -23.5 4.54 -0.68 8.87 -2 11.9 -4 -1.65 7.45 -0.94 16.85 0.54 24.13 0 0.18 0.2 0.15 0.4 0.18 0.2 1.39 0.43 2.73 0.66 3.75 -1.26 2.41 -0.76 6.13 -0.55 7.22a0.68 0.68 0 0 0 0.5 0.53 46.63 46.63 0 0 0 9.13 1.42c1.82 0 5.36 -0.43 6 -2.12 1.27 -3.17 -7 -6.13 -10.28 -7l0.08 -3.65a13 13 0 0 0 3.16 -0.4A79.88 79.88 0 0 0 65 135.07c1 2.6 4.85 12 5.69 13.2 0.13 0.17 0.2 0.15 0.31 0.13l1 -0.32c0.23 0.56 0.61 1.52 1 2.61 -0.53 2.63 1 6 1.47 7a0.69 0.69 0 0 0 0.64 0.38c1.64 -0.05 7.21 -0.33 10.35 -1.54 2.53 -1 4 -2.18 4.1 -3.34a2.29 2.29 0 0 0 -1.31 -2.08 11.16 11.16 0 0 0 -4 -1.37c-0.71 1.64 -0.95 2.3 -1.07 2.52s-0.14 0.1 -0.27 0a1.69 1.69 0 0 1 0.43 -2.6l-1.19 -0.16c-0.87 1.67 -1.18 2.35 -1.33 2.6s-0.13 0.14 -0.25 0a1.36 1.36 0 0 1 -0.32 -1.52 2.51 2.51 0 0 1 1 -1.14c-1.69 -0.13 -3.09 -0.13 -3.49 -0.13l-0.76 -3.2a8.53 8.53 0 0 0 1.54 -0.94c0 -14.2 1 -30 -10.71 -35.3 7.55 0.59 16 0.92 23.63 1 7.57 11.82 7.91 30.51 7.91 44.51v1c-8 0.25 -15.89 1.65 -15.89 3.88v2.56c0 2.23 8.23 4.07 18.86 4.07s19.1 -1.84 19.1 -4.07v-2.56c2 0.43 1.94 0.41 4.91 1a4.38 4.38 0 0 0 0.53 0.1c0.25 0.1 1 -1.7 1.7 -1.21a1.74 1.74 0 0 1 0.48 1.44 0.26 0.26 0 0 0 0.17 0.25l2.71 0.41c0.38 0.07 0.38 -0.41 0.41 -0.43a15.77 15.77 0 0 0 0.3 -3.62c0.48 -1.6 0.69 -2.28 1.34 -4.26l0.74 0.2c4.48 -10.38 7.57 -17.21 8.53 -25.47 2.33 0.15 7.44 0.41 13 0.31a39.82 39.82 0 0 0 7.32 1.79c4.87 8 3.8 17.62 3.8 27 -7 0.21 -13.83 1.42 -13.83 3.39v2.18c0 2.13 8.28 3.42 16.31 3.42s16.3 -1.27 16.3 -3.42v-2.23c-0.07 -1.92 -7 -3.14 -13.82 -3.34 0 -5.81 -0.29 -11.9 0.58 -17.34 0 0.12 0.38 -2 0.38 -2a25.35 25.35 0 0 1 2.89 -7.45 23 23 0 0 0 4 -1l4.79 2a0.2 0.2 0 0 0 0.25 -0.13 55.65 55.65 0 0 0 1.27 -5.49c7.74 -6.24 9.02 -17.89 8.34 -27.83zm-2.36 -20.25c0.46 1.64 0.81 3 -1.21 9.85 -1.55 5.26 -3.55 11 -7.83 14.38 -3.34 2.63 -7.44 3.49 -11.69 3.49 -5.32 0 -22.08 -2.35 -22.39 -2.46 -0.12 -0.05 -0.17 -0.1 -0.17 -0.22 -0.23 -2.1 -0.46 -4.31 -0.74 -6.13 7.67 -2.58 15.22 -3.6 24.06 -4.79h0.07a12.56 12.56 0 0 1 6.36 3.34 0.07 0.07 0 0 0 0.1 0 0.09 0.09 0 0 0 0 -0.1 11.71 11.71 0 0 0 -6.18 -3.72c3.3 -7.72 7.08 -19.08 14.58 -19.78a0.13 0.13 0 1 0 0 -0.25 9.93 9.93 0 0 0 -6.79 3.8 8.82 8.82 0 0 0 -0.78 -1.09l4.13 -2.1a0.34 0.34 0 0 0 0.17 -0.3 23.42 23.42 0 0 0 -2.78 -6.2c4.66 2.78 9.61 7 11.09 12.28zm-47.88 23.85a2.4 2.4 0 0 0 1.27 -0.23 1.18 1.18 0 0 1 -1.67 1c-0.88 -0.27 -0.91 -1.19 -0.69 -2.07 0.06 -0.16 -0.2 -0.23 -0.25 -0.08a2.51 2.51 0 0 0 -0.15 0.86 1.85 1.85 0 0 1 -0.81 -2c0 -0.15 -0.23 -0.18 -0.25 0a2.65 2.65 0 0 0 0 0.89c-1 -0.81 -0.78 -2.51 0 -3.57a0.82 0.82 0 0 1 0.56 -0.33c2 -0.26 3.3 1 5.57 1.06 0.1 0.89 0.23 1.88 0.33 2.79a3.23 3.23 0 0 0 -0.81 -0.08c-0.38 0 -0.28 0.18 -1.09 0.81a5 5 0 0 1 -0.94 0.54 3.07 3.07 0 0 1 -1 0.22 0.13 0.13 0 0 0 -0.07 0.19zm-4.78 1.52c0.23 0.07 0.53 -0.84 0.53 -0.86l2 -0.28 5.12 1.87 -12.33 1.67 -3.8 -2 8.48 -1.22a1.29 1.29 0 0 0 0 0.82zm1.26 -3 0.23 -0.71a1.85 1.85 0 0 0 0.56 0.78zm1.12 0.38a1.83 1.83 0 0 0 0.93 1 1.37 1.37 0 0 0 0.41 0.86l-1.16 -0.43 -1.95 0.25 0.58 -1.77zm-2.94 -0.53c-5 -0.43 -10.76 -0.76 -17.22 -1 0.95 -1.09 1.11 -2.83 3 -3.72 0.06 0.12 0.58 1.11 0.71 1.11a115.29 115.29 0 0 0 15.62 -0.4v0.2c-0.93 0.67 -1 1.23 -2.11 3.77zm0.15 0.27s1.07 -2.43 1.09 -2.45a3.7 3.7 0 0 1 0.74 -1.12l-1 3.73c-0.52 0.61 -1.18 0.72 -0.83 -0.2zm8.71 -3.62a0.32 0.32 0 0 0 0 0.16c-1.85 0 -2.86 -0.91 -4.48 -1.07a23.05 23.05 0 0 0 5.67 -1.39c0 0.56 0 0.56 -0.05 1.77l-1 0.36a0.13 0.13 0 0 0 -0.14 0.13zm-0.45 3.65a5.16 5.16 0 0 1 0.86 0.1c0 0.23 0.05 0.48 0.07 0.68 -0.53 -0.07 -1.06 -0.17 -1.64 -0.25a8.74 8.74 0 0 0 0.71 -0.57zM178 64.15c1 0.45 1.93 1 2.87 1.49a25.4 25.4 0 0 1 2.93 6.53c-0.68 0.36 -4.1 2.08 -4.07 2 -0.56 0.28 0.1 1 0.68 1.75 -3.39 4 -5.89 10.56 -8.08 15.9l-3.09 0.43C171 84 173.68 71.08 178 64.15zm-1.11 -1.57c0.18 0.25 0.84 1.21 0.71 1.39a76.52 76.52 0 0 1 -5.19 6.41l-1.95 -3.88a53 53 0 0 0 6.4 -3.92zm-1.19 -13.12c0.68 -0.58 1.77 -0.58 2.08 0.2 0.86 2.28 -1.65 3.4 -1.67 3.42a0.17 0.17 0 0 0 -0.18 0.18c0 0.56 -0.08 1.11 -0.08 1.67 0 3.27 0.2 5.77 0.31 7.75 -3.32 2.13 -4.64 2.89 -6 3.67a0.28 0.28 0 0 0 0 0.28l0.15 0.28c-0.45 -0.48 -2.76 -0.64 -3.39 -0.36a0.27 0.27 0 0 0 -0.08 -0.17 21.85 21.85 0 0 1 -2.55 -2.46c0.05 -0.1 0.25 -0.73 0.3 -0.91a9.5 9.5 0 0 0 1.19 0.48 2.64 2.64 0 0 0 3.44 0.28c1.52 -0.76 2.38 -0.43 3.09 -2.36 0.51 -1.34 1.65 -1 1.7 -2.76a5.83 5.83 0 0 1 0.05 -1.9 13.61 13.61 0 0 0 0.71 -2.91c0.04 -1.52 0.04 -3.42 0.9 -4.38zm-11.2 6.21a3.37 3.37 0 0 0 1.57 0.07c0.89 -0.15 1.25 -1 1.42 -0.83s-0.12 1.11 -1.26 1.39a1.92 1.92 0 0 1 -1.8 -0.48c-0.05 -0.08 0 -0.18 0.07 -0.15zm-3 -2.61a34.85 34.85 0 0 1 -0.07 -8.84c0.27 -2.08 0.7 -3.8 2.53 -3a9.33 9.33 0 0 0 6.53 0.58c3 -0.56 4.71 0.79 3.47 5.77 -0.91 3.6 -2.43 5.6 -3.55 5a8.51 8.51 0 0 0 -4.35 -1.21c-1.43 0.1 -3.38 0.15 -4.57 1.7zm4.2 12.86c0.23 0.23 0.49 0.46 0.71 0.66 -1 2 -1.72 3.64 -1.77 3.75a50.77 50.77 0 0 0 -2.48 -5.5c2.34 -1.57 0.4 -2.03 3.53 1.09zm-3.57 -0.58c0.93 2.09 1.68 3.89 2.38 5.3 0.1 0.22 0.2 0.17 0.23 0.07 0.36 -0.71 0.61 -1 1.7 -3.27a9.67 9.67 0 0 0 0.23 2.43c0.22 0.81 2.12 1.29 2.83 0.46a6.2 6.2 0 0 0 0.86 -3.2s1.52 3.25 1.85 3.65c0.05 0.08 0.18 0 0.23 0a58.6 58.6 0 0 0 4 -4.81c-3.11 6.13 -5.21 15.07 -6.61 21.4 -0.43 -5.52 -0.3 -13 -0.33 -16s-0.05 0 -0.07 0a3.9 3.9 0 0 1 -2.48 -0.13c-0.07 -0.06 -0.14 0 -0.18 0.1 -0.58 3.5 -2.61 11.07 -3.93 16.41a138.69 138.69 0 0 1 -0.72 -22.41zm-37.73 26.2c6 -2.38 11.12 -3.76 17.24 -5.54a8.21 8.21 0 0 1 5.36 2.43c0.08 0.07 0.19 -0.06 0.11 -0.1a7.39 7.39 0 0 0 -5.27 -2.69c1 -2.25 2 -4.4 3.21 -6.55 3.75 -6.52 9.18 -13 16.59 -14.08a140.38 140.38 0 0 0 1.47 28.23 85.46 85.46 0 0 0 -13.47 3.14 66.55 66.55 0 0 1 4.22 -21.3c0.05 -0.13 -0.2 -0.22 -0.25 -0.1a61.58 61.58 0 0 0 -4.38 19.37 32.92 32.92 0 0 1 -6.68 1.47s0.4 -0.81 -0.33 -0.93a0.5 0.5 0 0 0 -0.58 0.4l-0.18 0.66a117.71 117.71 0 0 1 -15.65 0.61 19 19 0 0 1 -1.85 -4c-0.14 -0.79 -0.04 -0.83 0.44 -1.02zm-4.76 4c0.15 -0.07 0 -0.3 -0.1 -0.22a6.52 6.52 0 0 0 -2.31 1.84c0 -0.78 1 -2.3 2.69 -3a0.13 0.13 0 1 0 -0.11 -0.23 5.65 5.65 0 0 0 -2.22 1.75c0 -0.48 0.1 -1.47 2.5 -2.43 1.19 -0.48 2.84 -0.66 3.55 -0.91a20.88 20.88 0 0 0 1.36 3.23 4.84 4.84 0 0 0 -2.36 2.53c-0.86 1.65 -1.59 2.23 -1.21 0.46 0.12 -0.56 0.32 -1.37 -0.08 -1.65s-0.71 -0.1 -1.39 0.23a8 8 0 0 0 -2.56 2.1c-0.24 0.36 -0.83 0.29 -0.79 -0.33 0.04 -0.91 1.76 -2.78 3.03 -3.32zm1.36 3.9c-1.11 0 -2.28 -0.07 -3.44 -0.1a8 8 0 0 1 2.45 -2c2.16 -1.09 0.91 0.91 0.99 2.1zm-28.48 -15c0.45 -0.36 0.65 -0.46 1 -0.46h17.27a2.42 2.42 0 0 1 1.64 0.66l-0.43 0.56a1.79 1.79 0 0 0 -1.42 -0.68c-19.29 0 -17.82 0 -18.2 0.07zm-1.17 2.25a1.57 1.57 0 0 1 1.55 -1.92h17.64a1.59 1.59 0 0 1 1.58 1.23l4.43 19.35H96.07a0.51 0.51 0 0 1 -0.51 -0.41zM94 99.44l1.3 5.62a0.73 0.73 0 0 0 0.73 0.59h20.67l11.47 -1.52a1.06 1.06 0 0 0 0.91 -0.89c0 -0.28 0.23 -0.73 0 -0.73h-11.7l-0.7 -3a0.59 0.59 0 0 0 0.65 0l3.83 0.13a0.44 0.44 0 0 0 0.63 0c6.51 0.23 12.36 0.56 17.37 1 -0.1 0.28 -0.2 0.66 0.05 0.86a0.55 0.55 0 0 0 0.35 0.1 1.19 1.19 0 0 0 0.64 -0.3l-0.36 1.36 -8.93 1.17c-0.1 0 -0.17 0.14 -0.06 0.25l4.23 2.18 12.66 -1.85c0.07 0 0.07 -0.13 0 -0.13l-3 -1.08a1.44 1.44 0 0 0 1.37 -1.45 2.62 2.62 0 0 0 0.53 -0.3l2 0.3c0.11 0.84 0.16 1.45 0.18 1.57 0.05 0.59 0.66 0.59 1 0.66l4 0.53c-9.79 4.37 -82.06 5.18 -101.25 0.61 -2.76 -0.68 -2.66 -1.19 -2.64 -1.37 0 -0.6 1.85 -1.11 2.58 -1.31a0.87 0.87 0 0 0 0.13 0.35c0.71 0.91 3.5 1.12 4.63 1.12s4.71 0.17 4.87 -1.52c0 -0.38 0.07 -0.89 0.12 -1.42 8.11 -0.82 19.4 -1.35 31.74 -1.53zm23.43 3.29h9.74l-9.43 1.27zm-68.65 -2.17a7.78 7.78 0 0 0 3 0.5h0.51l0.1 1.11c-1.55 0.41 -2.46 0.81 -2.76 1.24l-0.25 -0.07a21.26 21.26 0 0 0 -0.59 -2.78zm14 -11.12s-0.94 11.67 -1.09 13c-0.1 1 -3.54 1 -4.43 1s-4.33 -0.12 -4.46 -1c0 -0.43 -0.12 -1.07 -0.15 -1.3h0.2c1.32 0.15 2.38 -0.23 2.49 -0.66s-0.37 -0.73 -0.94 -0.83a6.41 6.41 0 0 1 -1.29 -0.33c0.65 -0.07 3.46 -0.25 3.85 -0.71a0.55 0.55 0 0 0 0.17 -0.59c-0.15 -0.4 -0.65 -0.48 -1.52 -0.55l-1.11 -0.15a4.82 4.82 0 0 0 2.35 -0.59c0.18 -0.17 0.46 -0.81 -0.6 -1.06 -0.43 -0.1 -2 -0.25 -2.46 -0.35s-1.8 -0.46 -1.44 -1 1.47 -1.32 1.47 -2c0 -0.33 -0.27 -0.6 -0.86 -0.4a5.58 5.58 0 0 0 -1.09 0.55l-0.33 -3.13c1.28 1.21 9.85 1.24 11.23 0.1zm-28.66 -20c4.53 4.66 8.3 11.77 10.94 18.2l4.86 -11.21 3.54 3.21a20.74 20.74 0 0 0 -0.46 2.08 13.66 13.66 0 0 0 -0.16 2.35c0 0.61 0.1 0.92 0.16 0.21s0.12 -1.67 0.25 -2.43A45.63 45.63 0 0 1 57.66 70c2.17 -4.38 2.45 -4.36 2.45 -4.59s-0.35 -0.76 -0.53 -1.59a2.6 2.6 0 0 1 0.2 -1.52 6.44 6.44 0 0 0 0.41 -3.24c0 -0.46 -0.08 -0.53 0.05 -0.69s0.81 0.06 0.88 0.71a3.48 3.48 0 0 1 0 0.79c-0.07 1.24 0.56 0.71 0.89 3.09 0 0.08 0.17 0.06 0.13 0a5 5 0 0 0 -0.14 -1.14 3.62 3.62 0 0 0 1.9 -1.62c0.94 -1.47 1.49 -2.08 1.85 -2.1s0.5 0.2 0.2 0.68a8.64 8.64 0 0 0 -0.81 1.85c0 0.18 0 0.2 0.08 0.15a10.38 10.38 0 0 1 2.65 -1.85 1.75 1.75 0 0 1 1.25 -0.18 0.18 0.18 0 0 1 0.1 0.16c0 0.22 -0.51 0.58 -0.94 0.86a5.73 5.73 0 0 0 -1.39 1.39c-0.13 0.2 0 0.28 0 0.25a7.21 7.21 0 0 1 2.18 -0.55c0.93 0 1.08 0.32 1 0.45s-2.55 1.32 -2.6 1.37a2 2 0 0 0 -1 0.71c-0.15 0.23 -0.58 1.59 -3.24 2.33a0.15 0.15 0 0 0 -0.1 0.12 142.49 142.49 0 0 1 -0.97 22.26 21.54 21.54 0 0 0 -8.16 -0.41c-0.78 0.11 -2.86 0.46 -2.88 1.25l0.35 3.67 -0.43 0.25c-1.57 -1 -3.82 -2.3 -5.42 -3.24 0.05 0.18 0.13 0.33 0.18 0.48 1.5 0.9 3.4 2.05 4.94 2.9 -1.52 0.81 -2.28 1 -3 3.07h-0.3C44.79 87.19 40 76.53 33.85 69.52c0.04 -0.12 0.15 -0.24 0.26 -0.13zm-10.74 0s-4.15 -0.18 -5.67 -2.23c0 -0.1 -1.22 -10.46 -1.14 -9.8a1.78 1.78 0 0 0 1.67 -0.61 0.12 0.12 0 0 0 -0.18 -0.17c-1.12 1.06 -2.93 0 -3.29 -1.7a1.66 1.66 0 0 1 2.76 -1.67c0.4 0.69 1.65 0.42 1 -1.24A4.31 4.31 0 0 1 18 50a9 9 0 0 0 -0.81 -3 1.25 1.25 0 0 1 0.48 -1.57c1.67 -1 5.87 0.31 7.65 -1.49 1.06 -1.09 2.68 -1.27 3.54 0.18 1.19 3.34 3.93 11.62 1.7 14.38 -1.65 2.07 -4.91 1.47 -4.69 2.1a42.41 42.41 0 0 0 1.7 4.23 4.66 4.66 0 0 1 -2.33 4c0.63 1.82 0.68 5.44 1.22 8.53 0 0.15 -0.33 0.1 -0.36 -0.08 -0.18 -1.08 -0.33 -2.22 -0.45 -3.34zm24.48 93.96c0 0.81 -1.7 1.6 -4.64 2.2 -10.41 2.09 -27.47 0.5 -27.47 -2.2v-1.54a7.22 7.22 0 0 0 3.34 1.57 55.3 55.3 0 0 0 12.71 1.29c3.32 0 14 -0.41 16.06 -2.89zm-13.68 -3.7v-1.62c7.7 0.23 13.67 1.6 13.67 3.12 -0.16 3 -19.46 4.13 -28.69 1.87 -0.93 -0.23 -3.39 -0.88 -3.41 -1.87 -0.06 -1.52 5.9 -2.86 13.49 -3.12 0 2.43 0.08 2.41 0.53 2.69a3.81 3.81 0 0 0 2.1 0.43c1.13 -0.03 2.31 -0.33 2.31 -1.5zm-0.38 0c0.05 0.91 -1 1 -1.95 1a4.2 4.2 0 0 1 -1.87 -0.28c-0.4 -0.23 -0.4 0.12 -0.28 -5.77 0.18 -8.31 0.46 -16.69 -3.87 -23.55a45.84 45.84 0 0 0 11.87 -0.23c-5.2 8.22 -3.9 18.93 -3.9 28.81zm-11.06 -29.59c-0.53 -0.31 -7.95 -1.42 -12.43 -10.54 -3.7 -7.57 -4.05 -17.82 -2.79 -26.2 2 4.86 4.53 9.64 4.86 10.3 0.28 -0.2 13 -9.29 15.09 -10.78 -2.12 -4.08 -5.9 -10.34 -9.21 -13.55a0.12 0.12 0 1 1 0.17 -0.18c2.87 2.36 6.16 7.42 8.13 11 2.61 4.65 2.46 4.48 3 4.58 0.43 0.07 10.51 0.58 18.31 1.69 0.33 0.06 0.3 -1.19 1.41 -2.2a17.16 17.16 0 0 1 1.9 -1.09c0.81 -0.43 1.57 -0.86 1.8 -1 0.43 -0.18 0.86 0 0.15 0.91a9.26 9.26 0 0 0 -1 1.19c-0.13 0.28 -0.18 0.51 0.38 0.89 0.85 0.61 2.23 0.6 3.64 0.86 0.79 0.15 0.89 0.68 -0.61 1a20.34 20.34 0 0 1 -2.45 0.25 0.11 0.11 0 0 0 0 0.21 14.11 14.11 0 0 1 2.48 0.28c0.81 0.12 1.19 0.15 1.29 0.45s-0.08 0.46 -0.51 0.56a24.79 24.79 0 0 1 -3.64 0.48 0.09 0.09 0 0 0 0 0.15c0 0.28 1.36 0.51 1.64 0.56 1.62 0.27 0.48 1.2 -1.44 1 -1.6 -0.13 -3.57 -0.12 -4.33 -0.76 0 0 -0.1 -0.05 -0.15 0a85.23 85.23 0 0 1 -11.83 5.42c-8.25 3 -13.54 3.94 -17.47 0.35a23 23 0 0 1 -3.49 -4.25l-1.64 1.1a14 14 0 0 1 1.78 4.86c0.68 3.26 1.41 5.69 4.76 7.06 1.06 7.7 7.31 10.51 15.09 11.47a36 36 0 0 1 -8.11 -0.28c-11 -1.77 -15.87 -9.82 -16.78 -21.09a0.13 0.13 0 0 0 -0.26 0c1 15.59 9.78 23.5 26.54 21.5a116.1 116.1 0 0 0 12.63 0.33C42.89 131 29.8 132 22.74 130.11zm28.53 21c1.93 0.14 4.22 0.14 4.87 0.1a25.32 25.32 0 0 1 -0.14 4.09c-0.17 1.32 -0.91 2.35 -2.12 2.18 -1.97 -0.31 -2.25 -4.06 -2.61 -6.33zm10.87 6.48 -1.6 2.53c0 0.05 -0.1 0.08 -0.15 0a1.43 1.43 0 0 1 -0.23 -1.63c0.59 -0.87 1.2 -1.33 1.92 -1.11 0.1 0.1 0.13 0.15 0.06 0.25zm-4.18 0c0.57 -0.86 1.21 -1.29 1.92 -1.1 0.12 0 0.13 0.11 0 0.23l-1.59 2.49c-0.05 0 -0.1 0.08 -0.15 0a1.4 1.4 0 0 1 -0.14 -1.56zm3.82 5c2.15 -0.2 3.93 -0.91 4.69 -1.9 0.68 2 -2.52 2.77 -4.66 3 -3.32 0.3 -8.74 -1 -10.31 -1.34a0.44 0.44 0 0 1 -0.3 -0.33c-0.05 -0.23 -0.1 -0.56 -0.15 -1 2.05 0.58 7.64 1.98 10.73 1.65zm27.09 -10.49c1.22 1.77 -1.67 3.35 -3.67 4.13 -3.11 1.22 -8.66 1.44 -10.28 1.55a0.43 0.43 0 0 1 -0.38 -0.23c-0.1 -0.2 -0.25 -0.51 -0.4 -0.89 4.38 -0.1 13.11 -0.45 14.73 -4.48zm-11.47 -1.76a2.79 2.79 0 0 1 -4.15 0.53c-0.35 -1.07 -0.76 -2.15 -1 -2.86a30.21 30.21 0 0 0 4.33 -1.75c0.57 2.74 1.01 3.2 0.82 4.08zm0.69 -5.22a70.54 70.54 0 0 1 -7.25 3c-2.74 -5.7 -5.84 -13.84 -5.84 -13.74 1.07 -5.19 1.34 -10.22 0 -13.62 -2.88 -7 -13.85 -10.61 -20.3 -11.42a0.13 0.13 0 1 0 0 0.26c6 0.78 17 4.2 19.83 11.24 3 7.39 -1.78 22.48 -5 29.83a35.42 35.42 0 0 1 -8.61 0.1c-1.59 -8.06 -1.92 -18.08 0.11 -26.34 0 -0.22 -0.21 -0.22 -0.26 -0.1 -0.23 0.71 -0.4 1.32 -0.58 2C38.44 126.18 23 127 21 114.91c6.26 2.08 16 -7.59 26.79 -11.74l1.72 0.58v2.61c0.17 2.21 14.77 3.27 17.12 3.46 10.9 5.12 11.28 14.97 11.46 35.3zM99 135.75c-0.87 -8.4 -2.6 -17.76 -7.23 -24.81 7.09 0.12 13.71 0.12 21 0 -7.85 11.85 -8.21 30.35 -8.16 44.49v3.29c0 1.28 -2.86 1.23 -4 0.88s-0.89 -1.29 -0.89 -4.2a189.16 189.16 0 0 0 -0.72 -19.65zm22 27.09c0 2 -8.58 3.7 -18.74 3.7s-18.64 -1.73 -18.64 -3.73v-1.73c3.54 4.49 33.85 4.31 37.38 -0.11zm-0.18 -2c-3.6 4.43 -37.12 3.93 -37.27 -0.51 0 -1.77 6.91 -3.37 15.78 -3.64 0.11 1.94 -0.45 2.88 1.16 3.36 1.11 0.36 4.51 0.48 4.53 -1.31v-2.08c6.18 0.18 11.42 1 14.11 2.08a1.73 1.73 0 0 0 -0.1 1c0 0.05 0.1 0.1 0.15 0.13s1.77 0.38 1.82 0.38a0.93 0.93 0 0 1 -0.2 0.57zm11.4 -2.61c-3 0.51 -5.65 -0.35 -6.61 -2.84 0.33 -1.14 0.53 -2.3 0.76 -3.44l7.09 2c-0.17 0.56 -1.26 4.26 -1.26 4.26zm8.15 -47.75c-8.31 2.42 -15.42 5.82 -15.93 40.94l1.55 0.43c-0.18 1 -0.48 2.76 -0.76 3.72 -0.48 1.6 -3.09 2.33 -4.74 2.48 -0.48 0.05 -0.93 0 -1.24 0.48 -2.91 -1.19 -8.56 -1.92 -14.2 -2.1 0 -13.89 0.42 -33.8 8 -45.45 34.77 -0.66 38.35 -3.75 27.3 -0.52zm-10.86 -0.48c-19.47 1 -50.38 1 -69.12 -1.14 -2.2 -0.25 -8.15 -0.93 -10.08 -2 -0.17 -0.1 -0.48 -0.33 -0.48 -0.53v-2c5.86 5.59 95.09 5.59 104.39 0.33a3.29 3.29 0 0 0 0.44 0v1.59c0.13 2.31 -22.81 3.63 -25.15 3.75zm24.54 -2.78c0.4 -0.21 0.88 -0.48 0.88 -0.94v-1.57c1.88 0.25 4 0.53 6.13 0.78l-0.25 0.54c-0.26 0.02 -2.99 0.45 -6.76 1.19zm31.7 56.18c0 2.73 -17.34 4.3 -27.47 2.2 -2.94 -0.6 -4.64 -1.39 -4.64 -2.2v-1.59c0.66 0.81 2.31 1.31 3.34 1.59 9 2.37 27.1 1.27 28.84 -1.72 -0.02 0.32 -0.07 0.89 -0.07 1.72zm-13.57 -4.66v-0.66c8.21 0.27 11.56 1.47 12.92 2.33 0.89 0.57 0.85 1.13 0 1.71 -3.52 2.3 -19.86 3 -28 1 -3.83 -1 -3.37 -1.87 -3.42 -1.9s-0.05 -2.71 13.72 -3.14v1.37s-0.51 2.15 3.29 1.6c1.79 -0.28 1.46 -1.17 1.49 -2.31zm0.45 -19.82s-1 3 -0.78 15.77c0 1.37 0.05 2.71 0.07 4.08 0 1.19 0.31 1.82 -1.29 2 -3.59 0.53 -2.91 -1.24 -3 -1.34 0.2 -11.78 1.17 -21 -3.58 -28.5a40.43 40.43 0 0 0 11.61 0.14 24.44 24.44 0 0 0 -3.03 7.85zM157.06 129c5.7 -0.12 11.75 -0.66 15.72 -2 1.7 0.74 3.95 1.67 6.89 2.91 -5.67 1.74 -15.37 1.44 -22.61 -0.91zm27.7 2.56s-16.89 -7.09 -17.24 -7.34a10 10 0 0 1 -0.74 -2.64c-0.6 -4.88 -1.11 -13.19 -5.44 -15.49l0.18 -0.61c3.87 0.46 7.77 0.86 10.23 0.89 4.33 0 8.58 -0.79 12 -3.5 4.56 -3.57 6.31 -9.11 7.88 -14.71a46 46 0 0 0 1.29 -6.08c0.28 9.55 -3.82 21.65 -7.17 30.26 -1.74 -2.33 -6.3 -3.64 -8.93 -4.45a0.12 0.12 0 1 0 -0.08 0.22c2.43 0.71 6.25 2 8.08 3.8a5.18 5.18 0 0 1 1.44 3.37 45.74 45.74 0 0 1 -1.5 16.32zm1.67 -5.57a44.37 44.37 0 0 0 0.63 -7.9 23.11 23.11 0 0 0 3.55 -9.75 27 27 0 0 0 0.35 -3.54 0.13 0.13 0 1 0 -0.25 0 29.93 29.93 0 0 1 -3.71 12.85 12.41 12.41 0 0 0 -0.94 -4.74 112 112 0 0 0 6.76 -23.22 30.69 30.69 0 0 1 1.6 8.89c0.58 9.73 -0.92 20.74 -7.99 27.42z" stroke-width="1"></path><path d="M154.66 159h0.05s0.07 0 0.07 -0.07a0.19 0.19 0 0 0 0.05 -0.13v-0.05c-0.36 -1.8 0.3 -2.11 1.22 -1.47a3.76 3.76 0 0 1 0.48 0.51c0.12 0.12 0.26 0.12 0.3 0.08l2.36 -1.37a0.33 0.33 0 0 0 0.15 -0.33 0.41 0.41 0 0 0 -0.05 -0.15v-0.1a6.77 6.77 0 0 0 -0.33 -0.66 20.56 20.56 0 0 0 -1.7 -2.36s-1.42 -3.34 -1.67 -4l1.44 -0.58c-1.74 -6.08 -3.54 -13.12 -6.93 -18.71 -1.32 0 -4.66 -0.15 -6.46 -0.28 -0.28 4.25 -1.49 8.18 -3.54 13.62a98.64 98.64 0 0 0 7.31 9.24l0.74 -0.3a36.06 36.06 0 0 1 1.74 3.39c0.64 1.55 -0.9 3.78 -2.1 4.92a1.88 1.88 0 0 0 -0.63 0.81 1 1 0 0 0 0 0.55 3 3 0 0 0 0.46 0.86c0.15 0.2 0.16 0.11 7.04 -3.42zm-4.61 -4.05c-0.48 -1.09 -1 -2.15 -1.6 -3.19l6.74 -2.71c0.28 0.58 1.77 3.9 1.77 3.9 -1.96 2.25 -4.61 3.26 -6.91 1.97zm7.85 -79.48c0 0.07 -2.86 3.29 -3 3.57s0.28 1.36 0.28 1.34a41.11 41.11 0 0 0 6.66 12c0.08 0.1 0.25 0 0.18 -0.13a43.22 43.22 0 0 1 -2.76 -4.1 62.16 62.16 0 0 1 -4 -8.63c-0.12 -0.36 2.51 -3 3 -3.78a0.41 0.41 0 0 0 -0.11 -0.53c-0.07 0 -3 -2.61 -3.21 -2.76a20.26 20.26 0 0 1 4.71 -6.13 0.18 0.18 0 1 0 -0.23 -0.27c-2.68 2.33 -5 6.07 -4.84 6.55 0 0.03 3.32 2.84 3.32 2.87zm7.92 -27.3a3.37 3.37 0 0 1 -0.56 0.73 10.31 10.31 0 0 1 -0.91 0.76c-0.23 0.26 -0.1 0.56 0.1 0.84a5.09 5.09 0 0 0 0.76 0.63 0.09 0.09 0 1 0 0.1 -0.15 3.55 3.55 0 0 1 -0.65 -0.63c-0.43 -0.56 0.1 -0.41 0.83 -1.22a2.21 2.21 0 0 0 0.51 -0.86c0 -0.15 -0.13 -0.2 -0.18 -0.1zm-2.35 -0.81c-0.13 0 -0.23 0.15 -0.23 0.33 0 0.35 -0.05 1 0.25 1 0.13 0 0.23 -0.15 0.23 -0.33s0.05 -1 -0.25 -1zm5.74 -0.08c-0.3 0 -0.25 0.69 -0.2 1 0 0.17 0.1 0.3 0.23 0.3 0.35 0.02 0.3 -1.3 -0.03 -1.3zm-0.58 -2.38a1.64 1.64 0 0 1 2 0.59c0.05 0.1 0.2 0 0.17 -0.08a1.44 1.44 0 0 0 -2.3 -0.66c-0.07 0.08 0.03 0.25 0.13 0.15zm-4.48 -0.1a1.58 1.58 0 0 0 -2.13 1c0 0.1 0.13 0.17 0.18 0.07a1.86 1.86 0 0 1 1.87 -0.91c0.13 0.04 0.18 -0.11 0.08 -0.16zM103 97.59a2.58 2.58 0 1 0 -2.55 -2.59 2.59 2.59 0 0 0 2.55 2.59zm0 -4.93a2.33 2.33 0 1 1 -2.3 2.34 2.33 2.33 0 0 1 2.3 -2.34z" stroke-width="1"></path></g></svg>