<svg xmlns="http://www.w3.org/2000/svg" fill="none" viewBox="0 0 200 200" height="200" width="200"><g id="secured--interface-secured"><g id="laptop"><path id="vector" fill="#000000" d="M164.444 67.252c-0.276 -3.346 -3.011 -6.032 -6.361 -6.247a998.344 998.344 0 0 0 -19.598 -1.07c0.038 0.336 0.074 0.67 0.109 1.007 6.462 0.29 12.931 0.644 19.424 1.06 2.859 0.185 5.193 2.476 5.429 5.332 2.066 25.045 1.528 46.058 -0.355 68.338 -0.243 2.873 -2.597 5.161 -5.475 5.322 -36.212 2.028 -71.665 2.033 -110.61 -0.517 -2.72 -0.178 -5.175 -2.3 -5.434 -5.488 -1.871 -23.006 -1.734 -45.24 0.34 -68.227 0.257 -2.851 2.607 -5.124 5.465 -5.288a883.732 883.732 0 0 1 38.728 -1.377c0.02 -0.335 0.042 -0.67 0.065 -1.003a884.788 884.788 0 0 0 -38.85 1.382c-3.348 0.192 -6.102 2.855 -6.403 6.196 -2.08 23.046 -2.216 45.335 -0.34 68.399 0.3 3.689 3.166 6.194 6.365 6.403 37.695 2.47 73.015 2.63 110.731 0.517 3.373 -0.188 6.131 -2.87 6.416 -6.236 1.863 -22.054 2.446 -43.164 0.356 -68.504l-0.002 0Z" stroke-width="1"></path><path id="vector_2" fill="#000000" d="m194.67 179.054 -21.347 -28.861a9.797 9.797 0 0 0 -7.03 -3.11c-9.14 -0.106 -13.965 -0.132 -13.965 -0.132s3.635 -0.175 11.346 -0.608c3.727 -0.209 6.774 -3.171 7.088 -6.891 2.071 -24.517 2.725 -48.015 0.396 -76.245 -0.305 -3.697 -3.326 -6.664 -7.028 -6.902a1112.204 1112.204 0 0 0 -26.294 -1.381c0.049 0.335 0.097 0.67 0.144 1.007 8.707 0.354 17.39 0.813 26.086 1.372 3.211 0.206 5.832 2.78 6.096 5.986 2.301 27.883 1.702 51.263 -0.395 76.079 -0.272 3.226 -2.916 5.795 -6.148 5.977 -31.002 1.737 -102.714 0.762 -123.131 -0.575 -3.04 -0.199 -5.803 -2.56 -6.102 -6.16 -2.154 -26.02 -1.887 -50.866 0.378 -75.957 0.289 -3.201 2.927 -5.753 6.136 -5.937a981.692 981.692 0 0 1 45.47 -1.562 83.164 83.164 0 0 1 -0.001 -1.002c-15.026 0.167 -30.13 0.684 -45.527 1.566 -3.7 0.212 -6.741 3.155 -7.075 6.846 -2.276 25.197 -2.498 50.098 -0.38 76.128 0.297 3.636 2.846 6.232 5.905 6.914l-2.225 -0.026c-2.346 -0.033 -4.605 0.786 -6.447 2.341L5.663 176.426c-2.188 1.84 -1.307 10.336 1.973 10.375l184.574 2.315c3.157 0 4.207 -8.192 2.458 -10.062h0.002Zm-2.412 4.354L7.705 181.093c-2.007 -0.023 -3.016 -2.534 -1.342 -3.955l24.957 -28.505a8.704 8.704 0 0 1 5.737 -2.053l129.224 1.503c2.385 0.027 4.685 1.045 6.274 2.748l21.347 28.861c1.33 1.43 0.283 3.729 -1.644 3.716Z" stroke-width="1"></path><path id="vector_3" fill="#000000" d="m120.624 178.975 -41.806 -1.017a0.5 0.5 0 0 1 -0.42 -0.752c1.867 -3.189 3.589 -7.456 4.722 -8.073 0.464 -0.254 0.976 -0.255 1.387 -0.256a777.231 777.231 0 0 1 30.987 0.568c1.636 0.062 2.262 0.441 2.927 2.118l2.667 6.728a0.5 0.5 0 0 1 -0.464 0.684Zm-40.947 -1.997 40.204 0.98 -2.389 -6.026c-0.51 -1.287 -0.78 -1.44 -2.036 -1.487a779.112 779.112 0 0 0 -30.947 -0.568c-0.905 0.002 -1.06 0.082 -1.544 0.908 -0.984 1.682 -2.238 4.289 -3.288 6.193Z" stroke-width="1"></path><path id="vector_4" fill="#000000" d="m171.493 166.595 -7.509 -12.454a0.498 0.498 0 0 0 -0.428 -0.242c-26.072 -0.037 -108.214 -1.065 -125.542 -1.833a0.493 0.493 0 0 0 -0.412 0.198l-9.222 12.194a0.501 0.501 0 0 0 0.386 0.802c49.036 1.253 142.298 2.092 142.298 2.092a0.5 0.5 0 0 0 0.428 -0.758l0.001 0.001ZM38.245 153.074c48.434 1.236 84.701 1.766 125.027 1.826l2.743 4.55c-4.935 0.008 -114.531 -1.375 -131.177 -1.872l3.406 -4.503 0.001 -0.001Zm-8.48 11.212 4.394 -5.81c0.641 0.423 129.6 1.977 132.459 1.973l3.56 5.903c-39.689 -0.066 -92.017 -0.836 -140.413 -2.066Z" stroke-width="1"></path></g><g id="lock"><path id="vector_5" fill="#000000" d="M137.815 51.581c-0.292 -1.723 -0.858 -2.376 -2.878 -2.56 -1.587 -0.144 -3.126 -0.27 -4.617 -0.38 0.032 -10.296 0.762 -22.154 -5.821 -30.293 -4.745 -5.865 -13.438 -8.622 -22.15 -7.022 -10.874 1.995 -16.655 8.404 -17.194 19.048 -0.337 6.654 -0.735 13.335 -0.568 19.875 -2.726 1.46 -4.905 2.908 -6.726 4.464 -2.04 1.742 -2.05 3.843 -2.06 6.066 -0.016 3.472 -1.524 15.808 -0.017 34.424 0.637 7.853 3.046 9.664 8.537 10.655a111.009 111.009 0 0 0 32.222 1.07c2.9 -0.328 5.651 -0.993 8.244 -1.992 4.355 -1.678 12.726 -5.616 13.881 -11.015 1.449 -6.775 2.178 -24.44 -0.854 -42.34h0.001ZM86.154 30.425c0.52 -10.262 5.872 -16.188 16.375 -18.115 7.801 -1.43 16.382 0.722 21.192 6.668 6.35 7.85 5.642 19.562 5.6 29.592a272.275 272.275 0 0 0 -8.233 -0.454c0.184 -8.61 1.46 -20.786 -6.397 -25.46 -5.238 -3.116 -12.979 -2.249 -16.904 1.893 -3.348 3.532 -3.445 8.6 -3.67 13.422 -0.175 3.74 -0.214 7.038 -0.113 10.097 -0.915 0.035 -1.823 0.085 -2.72 0.16 -3.342 0.274 -2.257 -0.262 -5.71 1.504 -0.134 -6.367 0.255 -12.888 0.58 -19.307Zm33.937 17.653c-8.105 -0.29 -24.074 -0.069 -25.09 -0.042 -0.121 -3.658 -0.014 -7.13 0.152 -10.816 0.187 -4.15 0.396 -8.854 3.36 -11.983 3.565 -3.762 10.885 -4.565 15.667 -1.72 7.295 4.338 6.096 16.135 5.911 24.561Zm-6.256 56.752c-3.373 1.499 -12.815 0.347 -10.754 -1.243 0.249 -0.192 0.595 -0.295 0.935 -0.382 2.748 -0.705 5.657 -0.583 8.49 -0.16 1.139 0.169 3.224 0.943 1.329 1.785Zm24.476 -15.01c-0.167 1.854 -0.385 3.641 -1.208 5.143 -2 3.65 -6.995 4.61 -10.578 5.015a110.02 110.02 0 0 1 -31.932 -1.06c-4.982 -0.902 -7.115 -2.304 -7.718 -9.752 -1.507 -18.584 0.013 -30.87 -0.004 -34.166 -0.016 -2.964 0.139 -5.254 2.229 -5.543 3.339 -0.462 6.999 -0.465 10.537 -0.468 6.342 -0.006 17.939 -0.533 35.21 1.03 1.522 0.137 1.761 0.426 1.981 1.73a148.214 148.214 0 0 1 1.482 38.071h0.001Z" stroke-width="1"></path><path id="vector_6" fill="#000000" d="M112.743 79.34c-8.712 -0.67 -9.547 -4.609 -9.596 -5.8 -0.111 -2.74 2.507 -5.16 6.227 -5.753 3.181 -0.507 6.602 -0.93 10.055 -0.593 7.498 0.731 8.904 3.577 9.076 5.207 0.248 2.355 -1.792 4.836 -4.744 5.771 -3.546 1.105 -7.269 1.456 -11.017 1.167l-0.001 0.001Zm4.112 -11.266c-2.506 0 -4.98 0.327 -7.325 0.701 -3.159 0.504 -5.474 2.535 -5.384 4.725 0.083 2.025 2.404 4.361 8.674 4.843 3.737 0.288 7.319 -0.09 10.64 -1.124 2.465 -0.78 4.245 -2.85 4.049 -4.712 -0.373 -3.55 -7.037 -4.433 -10.654 -4.433Z" stroke-width="1"></path></g><g id="password"><path id="vector_7" fill="#000000" d="M140.635 119.087c-0.271 -1.131 -2.32 -1.583 -3.994 -1.627 -23.065 -0.6 -45.749 -0.662 -65.938 -0.31 -1.508 0.027 -3.689 0.326 -4.048 1.791 -1.183 4.833 -1.194 9.74 -0.025 14.619 0.271 1.13 2.318 1.587 3.99 1.626 33.541 0.775 42.346 0.664 65.918 0.308 2.443 -0.037 3.744 -0.448 4.176 -2.342a30.686 30.686 0 0 0 -0.078 -14.065h-0.001Zm-69.991 15.1c-2.006 -0.054 -2.989 -0.636 -3.05 -0.893a29.694 29.694 0 0 1 0.032 -14.115c0.221 -0.903 2.547 -1.019 3.094 -1.029 4.394 -0.077 8.801 -0.133 13.214 -0.171 -0.333 5.482 -0.27 11.024 0.19 16.493 -4.767 -0.084 -8.909 -0.162 -13.48 -0.285Zm32.42 0.512c-5.986 -0.029 -11.966 -0.104 -17.938 -0.205a113.567 113.567 0 0 1 -0.191 -16.519c3.898 -0.031 16.288 -0.04 18.578 -0.029a349.335 349.335 0 0 0 -0.449 16.753Zm19.404 -0.039c-6.127 0.049 -12.263 0.071 -18.404 0.044 0.015 -5.404 0.166 -11.356 0.45 -16.754 6.166 0.033 12.329 0.104 18.478 0.213a266.486 266.486 0 0 0 -0.524 16.497Zm17.27 -1.73c-0.315 1.38 -1.273 1.531 -3.218 1.564 0 0 -8.948 0.12 -13.052 0.155 0.004 -5.325 0.18 -11.177 0.525 -16.47 3.728 0.068 12.622 0.281 12.622 0.281 2.009 0.052 2.994 0.636 3.047 0.859a29.678 29.678 0 0 1 0.076 13.611Z" stroke-width="1"></path><path id="vector_8" fill="#000000" d="M76.109 126.494c0.456 -0.015 0.918 0.025 1.372 -0.005a0.517 0.517 0 0 0 0.499 -0.654c-0.194 -0.519 -0.773 -0.434 -1.941 -0.34 -0.345 0.026 -0.227 0.313 1.081 -2.249 0.32 -0.625 -0.582 -1.164 -0.947 -0.553a41.809 41.809 0 0 0 -0.915 1.631c-0.1 -0.678 -0.208 -1.354 -0.295 -2.034 -0.057 -0.447 -0.754 -0.473 -0.721 0 0.062 0.883 0.146 1.764 0.229 2.645l-1.694 -1.605c-0.287 -0.271 -0.69 0.139 -0.431 0.431l1.775 2.001c-1.504 0.296 -1.67 0.585 -2.11 0.817 -0.14 0.074 -0.083 0.333 0.084 0.312 0.582 -0.071 0.08 0.103 1.887 -0.183 -0.424 0.786 -1.338 2.446 -1.294 2.894 0.021 0.22 0.224 0.347 0.428 0.245 0.276 -0.137 0.452 -0.457 0.622 -0.706 0.311 -0.459 0.833 -1.376 1.015 -1.695 0.148 1.037 0.156 1.688 0.361 2.275 0.169 0.484 0.912 0.423 0.918 -0.125 0.006 -0.604 -0.178 -1.245 -0.271 -1.841 -0.061 -0.395 -0.225 -0.329 1.456 1.41 0.282 0.291 0.487 0.528 0.9 0.605 0.314 0.058 0.529 -0.176 0.482 -0.481 -0.059 -0.387 -0.037 -0.434 -2.49 -2.795Z" stroke-width="1"></path><path id="vector_9" fill="#000000" d="M96.194 126.399c0.285 0.044 0.478 0.006 0.748 -0.089 0.23 -0.081 0.34 -0.375 0.148 -0.56 -0.4 -0.385 -0.573 -0.402 -1.433 -0.484 0.526 -0.601 1.065 -1.189 1.02 -1.603 -0.018 -0.166 -0.132 -0.329 -0.32 -0.32 -0.572 0.027 -0.837 0.513 -1.978 1.882l-0.074 0.001a15.536 15.536 0 0 0 -0.312 -2.191c-0.083 -0.367 -0.647 -0.28 -0.648 0.088 -0.002 0.562 0.019 1.125 0.043 1.687 -0.526 -0.4 -1.073 -0.926 -1.678 -0.984 -0.122 -0.012 -0.244 0.141 -0.196 0.257 0.21 0.51 0.675 0.789 1.25 1.33 -0.765 0.157 -0.85 0.21 -1.752 0.68 -0.251 0.131 -0.064 0.468 0.18 0.427a81.328 81.328 0 0 1 2.249 -0.23l0.003 0.079a80.166 80.166 0 0 0 -1.98 2.591c-0.207 0.281 0.243 0.613 0.48 0.369 0.496 -0.511 0.99 -1.023 1.479 -1.542 -0.02 0.637 -0.031 1.274 0.038 1.898 0.049 0.454 0.768 0.652 0.87 0.118 0.173 -0.896 0.14 -1.844 0.09 -2.767 1.662 1.7 1.582 1.824 2.01 2.111 0.328 0.218 0.877 -0.102 0.647 -0.646 -0.216 -0.512 -1.6 -1.848 -1.977 -2.209 0.38 0.024 0.11 -0.043 1.094 0.108l-0.001 -0.001Z" stroke-width="1"></path><path id="vector_10" fill="#000000" d="M115.67 124.794c-0.536 -0.044 -1.099 0.013 -1.635 0.054 0.38 -0.428 1.363 -1.384 1.383 -1.408 0.437 -0.527 -0.22 -1.073 -0.612 -0.793 -0.639 0.458 -1.259 1.225 -1.755 1.791 -0.054 -0.674 -0.123 -1.347 -0.261 -2.009 -0.061 -0.293 -0.447 -0.184 -0.479 0.065 -0.099 0.768 -0.115 1.545 -0.113 2.321a427.76 427.76 0 0 0 -2.018 -1.531c-0.231 -0.174 -0.517 0.205 -0.308 0.398 0.541 0.499 1.085 0.994 1.627 1.492a23.98 23.98 0 0 0 -0.875 0.195c-0.377 0.092 -1.047 0.164 -1.295 0.516 -0.254 0.176 -0.14 0.427 0.077 0.453l0.097 0.012c0.373 0.149 0.945 -0.039 1.304 -0.094 0.286 -0.043 0.574 -0.073 0.861 -0.107 -0.472 0.642 -1.369 1.959 -1.349 2.756 0.003 0.141 0.157 0.236 0.283 0.163 0.473 -0.279 0.775 -0.778 1.64 -1.987 0.037 1.01 -0.005 1.521 0.108 2.102 0.085 0.436 0.845 0.511 0.92 -0.124 0.069 -0.588 -0.025 -1.068 -0.076 -2.352 0.804 0.716 0.532 0.475 1.33 1.146 0.242 0.204 0.489 0.483 0.802 0.563 0.388 0.099 0.639 -0.3 0.486 -0.633 -0.12 -0.259 -0.618 -0.64 -2.14 -1.832 1.228 -0.077 1.331 -0.016 1.997 -0.069 0.699 -0.055 0.699 -1.029 0 -1.086l0.001 -0.002Z" stroke-width="1"></path><path id="vector_11" fill="#000000" d="M135.332 125.912a20.552 20.552 0 0 0 -1.707 -0.093c0.347 -0.305 0.696 -0.608 1.041 -0.916 0.39 -0.347 1.084 -1.033 0.548 -1.545 -0.083 -0.08 -0.231 -0.139 -0.346 -0.091 -0.41 0.17 -0.284 0.202 -0.55 0.49 -0.223 0.242 -0.299 0.287 -1.688 1.525 -0.019 -0.887 -0.052 -1.773 -0.174 -2.65 -0.035 -0.252 -0.474 -0.252 -0.509 0a19.887 19.887 0 0 0 -0.159 2.127 22.233 22.233 0 0 0 -1.5 -1.096c-0.275 -0.182 -0.615 0.247 -0.357 0.463a27.622 27.622 0 0 1 1.792 1.648c-2.608 -0.104 -2.24 0.009 -2.707 0.123 -0.212 0.053 -0.183 0.336 0 0.402 0.1 0.036 0.167 0.106 0.274 0.136 0.488 0.133 1.207 0.17 1.839 0.215 -0.691 0.628 -1.387 1.25 -2.06 1.9 -0.414 0.399 0.19 0.962 0.618 0.617 0.695 -0.56 1.365 -1.146 2.043 -1.726 -0.017 0.809 -0.014 0.226 -0.018 1.723 0 0.323 -0.039 0.669 0.08 0.975 0.156 0.403 0.666 0.403 0.823 0 0.118 -0.305 0.081 -0.463 0.077 -1.837 -0.002 -0.511 -0.017 -1.022 -0.029 -1.534l0.02 0.002c1.47 1.624 1.439 1.771 1.915 1.961 0.303 0.122 0.504 -0.219 0.469 -0.468 -0.055 -0.383 -0.369 -0.718 -0.976 -1.392 0.416 0.028 0.831 0.059 1.244 0.057 0.667 -0.001 0.637 -0.948 0 -1.016h-0.003Z" stroke-width="1"></path></g></g></svg>