<svg xmlns="http://www.w3.org/2000/svg" viewBox="0 0 500 500" height="500" width="500"><g><path d="M207.31 150.69a6.720000000000001 6.720000000000001 0 0 0 -6.025 3.375 1.25 1.25 0 1 0 2.17 1.25 4.275 4.275 0 0 1 3.855 -2.1149999999999998 1.25 1.25 0 0 0 0 -2.5Z" fill="#000000" stroke-width="2.5"></path><path d="M218.5625 157.5525a20.2025 20.2025 0 0 0 -5.8325000000000005 0.8724999999999999 1.25 1.25 0 0 0 -0.8599999999999999 1.545 5.91 5.91 0 0 0 5.595 4.2 1.25 1.25 0 0 0 0 -2.5 3.4725 3.4725 0 0 1 -2.5475 -1.2225 16.75 16.75 0 0 1 3.645 -0.395 1.25 1.25 0 0 0 0 -2.5Z" fill="#000000" stroke-width="2.5"></path><path d="m217.5 150.445 -5.335 -2.135a1.25 1.25 0 1 0 -0.9325 2.3200000000000003c0.25 0.1 5.7875 2.3474999999999997 6.1425 2.4125a2.3925 2.3925 0 0 1 -0.795 1.3075 1.25 1.25 0 0 0 1.7674999999999998 1.7674999999999998c2.6675 -2.6750000000000003 1.4625 -5.2725 -0.8475 -5.6725Z" fill="#000000" stroke-width="2.5"></path><path d="M381.33000000000004 298.97249999999997c-20.775000000000002 36 -52.4175 62.29 -86.815 72.1525a1.25 1.25 0 0 0 0.6900000000000001 2.4025c35 -10.04 67.1925 -36.75 88.29 -73.30499999999999 17.195 -29.79 28.197499999999998 -66.2125 33.64 -111.355 4.7775 -39.5775 0.9525 -72.5 -11.370000000000001 -97.85249999999999a1.25 1.25 0 0 0 -2.25 1.0925c12.1075 24.9125 15.854999999999999 57.3675 11.135 96.46000000000001 -5.4 44.800000000000004 -16.2975 80.91499999999999 -33.32 110.405Z" fill="#000000" stroke-width="2.5"></path><path d="M435.40250000000003 183.07500000000002a1.25 1.25 0 0 0 -1.2725 1.2275 249 249 0 0 1 -212.1875 242.22750000000002 1.25 1.25 0 1 0 0.3775 2.4699999999999998 251.5 251.5 0 0 0 214.31 -244.6525 1.25 1.25 0 0 0 -1.2275 -1.2725Z" fill="#000000" stroke-width="2.5"></path><path d="M153.385 25.015a1.25 1.25 0 0 0 0.265 -2.5C101.22 16.98 46.75 45.455 21.2325 91.7825a1.25 1.25 0 0 0 2.19 1.205c25.049999999999997 -45.4675 78.49249999999999 -73.405 129.9625 -67.9725Z" fill="#000000" stroke-width="2.5"></path><path d="M68.8575 66.0825a1.25 1.25 0 0 0 0.6775 2.3025 1.25 1.25 0 0 0 0.675 -0.1975 149.2075 149.2075 0 0 1 115.94250000000001 -19.325000000000003 1.25 1.25 0 0 0 0.6 -2.4274999999999998 151.73 151.73 0 0 0 -117.89500000000001 19.6475Z" fill="#000000" stroke-width="2.5"></path><path d="M375.82500000000005 152.76500000000001a41.6825 41.6825 0 0 0 -12.9 -19.2125c-5.9275 -5.390000000000001 -11.0625 -11.305 -18.52 -14.375a10.075000000000001 10.075000000000001 0 0 1 3.73 -2.525 19.5 19.5 0 0 1 6.647499999999999 -0.22999999999999998c3.5 0.17 3.5 -3.22 1.3775000000000002 -4.25a13.9525 13.9525 0 0 0 -3.73 -1.5225c0.98 0.0125 4.6625 0.0675 5.3500000000000005 -0.62a2.105 2.105 0 0 0 0.45499999999999996 -3.5 7.66 7.66 0 0 0 -3.93 -1.675 1.7874999999999999 1.7874999999999999 0 0 0 -0.37 -3.25 10.522499999999999 10.522499999999999 0 0 0 -8.452499999999999 0.0425 25.92 25.92 0 0 0 -8.82 4.4025 13.25 13.25 0 0 0 -2.5 -3.5625c-3.4675000000000002 -3.4725 -7.029999999999999 0 -5.6499999999999995 2.6125l3.0375 10.205a136.42 136.42 0 0 1 -10.620000000000001 29.232499999999998 211.54250000000002 211.54250000000002 0 0 0 -11.8025 28.27 458.1125 458.1125 0 0 0 -62.1075 -0.42250000000000004c-0.1625 -0.3925 -0.3375 -0.9275 -1.035 -1.0775a49.75 49.75 0 0 0 -15.7625 -0.8425 1.25 1.25 0 0 0 -1 1.75c-5.2125 0.7074999999999999 -5.3575 0.25 -6 0.5725 -0.9475 -0.6 -1.5625 -1.1225 -2.2800000000000002 -0.9025l-1.1175 -1.4874999999999998c5.277500000000001 -3.775 6.1450000000000005 -10.934999999999999 4.595000000000001 -16.3525a39.4 39.4 0 0 0 -4.6975 -9.9725 14.92 14.92 0 0 0 -1.62 -17.955000000000002 22.480000000000004 22.480000000000004 0 0 0 -17.155 -6.9825c-7.25 0.29250000000000004 -11.884999999999998 4.455 -18.0325 6.065a36.145 36.145 0 0 0 -4.8975 1.1675 20.9075 20.9075 0 0 0 -11.025 10.6675 28.115000000000002 28.115000000000002 0 0 0 -3.805 10.9525 17.927500000000002 17.927500000000002 0 0 1 -9.3275 -0.535c-4.4 -1.25 -6.2275 -4.025 -6.2275 -6.75a1.25 1.25 0 0 0 -2.3375000000000004 -0.62 11.5 11.5 0 0 0 -0.47 7.595c-5.625 -2.5824999999999996 -10.38 -9.105 -7.75 -14.6475 1.1475 -2.4175 3.03 -5.0375000000000005 4.895 -8.1525a8.66 8.66 0 0 0 1.2375 -5.0600000000000005 9.5 9.5 0 0 0 -5.6725 -5.5175C108.38250000000001 102.23750000000001 74.55499999999999 117.75 77.07499999999999 144.6275a18.794999999999998 18.794999999999998 0 0 0 5.2625 11.459999999999999 14.5475 14.5475 0 0 0 11.717500000000001 4.525 1.25 1.25 0 0 0 0.6925000000000001 -2.225c-7 -5.6025 -6.7075 -17.905 11 -25.6075 3.8674999999999997 -1.7874999999999999 12.15 -3.05 12.7725 1.335a15.19 15.19 0 0 1 -0.2675 3.43 22.345000000000002 22.345000000000002 0 0 0 8.782499999999999 20.115 28.97 28.97 0 0 0 23.75 4.0200000000000005 52.2775 52.2775 0 0 0 13.115000000000002 -5.227500000000001c3.5 10.1525 18.3525 19.795 34.865 17.75a20.5375 20.5375 0 0 1 0.5700000000000001 2.7175c-0.1775 0.35000000000000003 0.07 0 -0.725 1.905a12.98 12.98 0 0 0 -1.1300000000000001 3.725 1.25 1.25 0 0 0 -0.785 0.2375c-1.975 1.4375 -8.105 2.5424999999999995 -16.512500000000003 3a168 168 0 0 0 -23.54 2 1.25 1.25 0 0 0 -0.7775 0.42500000000000004c-9.1875 0.235 -13.107500000000002 1.395 -25.4025 2.7350000000000003 -7.6825 0.8225 -14.82 -3.8425 -21.68 -6.86C90.25 175.815 78.25 169.4375 58.977500000000006 162.25c0 -0.10500000000000001 -1.3450000000000002 -6.637499999999999 -1.3650000000000002 -6.75a3.3375 3.3375 0 0 0 -0.9175 -2.25 6.5225 6.5225 0 0 0 -1.595 -0.8 1.28 1.28 0 0 0 -0.12 -0.2975A72.05 72.05 0 0 1 73.17750000000001 118.5a1.25 1.25 0 0 0 0.17500000000000002 -1.5125A17.585 17.585 0 0 0 65.8075 110a10.120000000000001 10.120000000000001 0 0 0 -8.469999999999999 -0.95c-3.67 1.225 -5.699999999999999 4.9399999999999995 -7.3075 8.3125a206.3125 206.3125 0 0 0 -12.170000000000002 30.7775 10.265 10.265 0 0 0 -3.7199999999999998 -2.705c-8.9725 -3.0775 -10.75 5.3525 -2.135 6.9275 0.275 0.0475 0.5425 0.1 0.805 0.1625a31 31 0 0 0 -7.43 4.5 1.25 1.25 0 1 0 1.5825 1.935 28.3425 28.3425 0 0 1 8.365 -4.7325 1.25 1.25 0 0 0 0.43999999999999995 1.865 126.75 126.75 0 0 0 -0.1225 46.0325 1.25 1.25 0 0 0 0.6525000000000001 0.8899999999999999c6.9125000000000005 3.6075 13.0975 3.8874999999999997 17.94 -2.3525a9.6775 9.6775 0 0 0 0.2025 1.7925 70.81750000000001 70.81750000000001 0 0 0 17.29 38.15c11.0525 12.25 35.955 16.192500000000003 51.050000000000004 15.642499999999998 12.6225 -0.275 29.089999999999996 -1.0975 40.06999999999999 -8.2325a200.68 200.68 0 0 1 -39.5225 49.125c-11.799999999999999 10.705 -27.72 14.822500000000002 -43.0875 17.84a12.2675 12.2675 0 0 0 -7.4125 3.295 10.7925 10.7925 0 0 0 -1.645 5.7625c-1.1675 13.4175 7.817499999999999 26.79 21.407500000000002 24.424999999999997 5.72 -1.43 9.0625 -5.735 16.265 -2.7175 -2.5700000000000003 1.8725 9.25 -6.705 -31.6075 23l-18.1425 -2.3225000000000002c-2.2275 0 -3.3575 1.25 -3.4399999999999995 2.7325l-1.3425 5.637499999999999a1.25 1.25 0 0 0 1.1700000000000002 1.54l5.465 0.195c-4.8975 6.879999999999999 -12.4325 12.115 -12.4325 22.98a1.25 1.25 0 0 0 0.9625 1.2175c5.1 1.2025 9.57 -2.3200000000000003 13.6925 -5.5 6.4025 -4.9575000000000005 10.02 -8.35 19.45 -9.84a1.25 1.25 0 0 0 1.025 -0.97c3.13 -0.07250000000000001 31.810000000000002 -5.545 39.7675 -7.17a22.515 22.515 0 0 0 5.942499999999999 11.2975c7.1375 6.86 17.7875 8.75 27.445 10.702499999999999 16.634999999999998 3.3674999999999997 17.572499999999998 9.5475 19.2125 11.8025a17.22 17.22 0 0 0 5.6975 4.9375 1220.9 1220.9 0 0 0 -2.405 20.310000000000002c-0.36 4.5 -2.9699999999999998 13.514999999999999 -2.385 20.175a1.25 1.25 0 0 0 -1 0.8225c-2.165 6.2225 -5.6575 14.292499999999999 -7.865 20.325000000000003a2.8325 2.8325 0 0 0 1.625 4.25l5.5 2.75a1.25 1.25 0 0 0 1.7774999999999999 -0.8475l1.025 -4.61a60.614999999999995 60.614999999999995 0 0 0 7.2975 6.5225 24.615000000000002 24.615000000000002 0 0 0 14.885 2.905c5.949999999999999 0 6.567499999999999 -5.445 3.4549999999999996 -6.942500000000001 -3.605 -2.5 -6.952500000000001 -3.7674999999999996 -8.9575 -7.275a24.217499999999998 24.217499999999998 0 0 1 -3.1274999999999995 -12 1.25 1.25 0 0 0 -0.5 -1 17.1125 17.1125 0 0 0 2.82 -4.5c8.645 -16.465 13.149999999999999 -24.25 20.884999999999998 -40.75 8.5825 -2.5 15.962499999999999 -7.2675 20 -16.325 24.1525 -54.067499999999995 40.895 -111.97749999999999 44.7375 -171.25a3.5225 3.5225 0 0 1 1.0975 -2.75c1.37 -1.0975 17.015 3.295 19.485 3.5675 9.605 0.55 18.6625 1.1 25.525000000000002 -1.92 11.5275 -5.215 22.5 -16.75 31.0125 -28 6.0375 -7.9575 14.82 -19.485 18.9375 -28.5425 3.025 -6.8825 2.3674999999999997 -11.3225 0.28 -18.134999999999998ZM150.1675 159.25a27.029999999999998 27.029999999999998 0 0 1 -21.6925 -3.63 19.7825 19.7825 0 0 1 -7.777500000000001 -17.64 16.69 16.69 0 0 0 0.3025 -4.0325 5.5 5.5 0 0 0 -2.86 -4.275c-4 -2.2075 -10.7925 -0.395 -13.4225 0.8200000000000001 -8.7625 3.8074999999999997 -14.1675 8.875 -16.0575 15.0225a13.285 13.285 0 0 0 2.1725 12.445 11.615 11.615 0 0 1 -6.65 -3.5599999999999996 16.39 16.39 0 0 1 -4.62 -9.98 25.917500000000004 25.917500000000004 0 0 1 9.165 -22.25C101.83 111.15 121.25 110.25 136.5 116.55749999999999c1.825 0.9125 3.75 2.065 4.25 3.71a6.447500000000001 6.447500000000001 0 0 1 -0.9175 3.31c-1.8725 3.11 -3.7874999999999996 5.7875 -5 8.3675 -3.9124999999999996 8.25 4.640000000000001 18.3525 13.6325 19.317500000000003a1.25 1.25 0 0 0 0.3225 -2.48c-1.12 -0.18 -1.585 -1.635 -1.75 -2.75a11.690000000000001 11.690000000000001 0 0 0 6.1375 3.8200000000000003 20.73 20.73 0 0 0 9.835 0.735 14.8275 14.8275 0 0 0 0.25 3.3525 49.5325 49.5325 0 0 1 -13.092500000000001 5.3100000000000005ZM52.285000000000004 118.42750000000001c1.3975000000000002 -2.9299999999999997 3.085 -6.0975 5.845000000000001 -7.0175a7.7 7.7 0 0 1 6.5 0.775 15 15 0 0 1 6.0725 5.2925 73.94 73.94 0 0 0 -16.5375 28.305c-4.305 -2.3775 -9.7175 -0.8200000000000001 -13.3925 1.34a206.25 206.25 0 0 1 11.512500000000001 -28.695Zm-12.669999999999998 32.644999999999996c2.325 -2.25 9.215 -5.85 13.799999999999999 -2.8225q-0.36 1.2650000000000001 -0.6775 2.5475a15.69 15.69 0 0 0 -13.122499999999999 0.275Zm-0.94 3.5a13.0825 13.0825 0 0 1 11.697500000000002 -1.985 17.6175 17.6175 0 0 0 -6.7700000000000005 2.75 10.3725 10.3725 0 0 0 -5.4125 1.3775000000000002 17.465 17.465 0 0 1 0.485 -2.1375Zm-6.25 -4.6899999999999995c-2.445 -0.4475 -3.365 -1.4674999999999998 -3.5 -1.9475 -0.3425 -1.1175 5.34 -1.4575 8.105 3.115l-0.065 0.235a20.927500000000002 20.927500000000002 0 0 0 -4.5325 -1.3975000000000002Zm4.8325000000000005 46.4275a123.85 123.85 0 0 1 0.29000000000000004 -35.915 7.5 7.5 0 0 1 2.605 -1.9025 1.25 1.25 0 0 0 0.22249999999999998 1.4625 7.5249999999999995 7.5249999999999995 0 0 0 8.3775 1.6925000000000001 6.952500000000001 6.952500000000001 0 0 0 0.155 5.6274999999999995c-0.6725000000000001 7.625 1.5 15.53 3.8225 22.777500000000003a14.094999999999999 14.094999999999999 0 0 0 -15.465 6.262499999999999Zm1.155 4.95c-0.7000000000000001 -2.765 3.75 -8.75 10.0975 -9.215a15.5725 15.5725 0 0 1 0.79 1.5725A10.25 10.25 0 0 0 42.3425 197.5c-2.235 2.235 0.8825 6.41 7.3775 4.1025 -3.5 2.4299999999999997 -7.47 1.4975 -11.299999999999999 -0.3375Zm5.75 -2.065a7.275 7.275 0 0 1 6.887499999999999 -3 1.25 1.25 0 0 0 1.3575000000000002 -1.7175000000000002 61.28 61.28 0 0 0 -0.9675 -2.2025 6.1850000000000005 6.1850000000000005 0 0 1 2.1149999999999998 0.8899999999999999c2.745 2.7625 -5.345 8.2425 -9.389999999999999 6.035Zm9.115 -16.04a62.1125 62.1125 0 0 1 -1.585 -7.4675 6.8500000000000005 6.8500000000000005 0 0 0 3.075 0.5 201.215 201.215 0 0 0 -1.4874999999999998 6.9725Zm1.9875 -9.1025a1.25 1.25 0 0 0 -0.8275 -0.3125 6.465 6.465 0 0 1 -3.06 -0.9575c-0.075 -1.0474999999999999 -0.10749999999999998 -2.0949999999999998 -0.09 -3.14a1.25 1.25 0 0 0 0.79 -2.07 4.7225 4.7225 0 0 1 0 -6.5725 1.25 1.25 0 0 0 -0.3725 -1.9475 4.605 4.605 0 0 0 -3.8125 0.25 4.9025 4.9025 0 0 1 -4.7975 -0.35000000000000003c3.8525 -3.7325000000000004 9.94 -4.805 11.899999999999999 -3.8274999999999997 0.125 0.25 -0.0775 -0.5 1.5 7.5a1.25 1.25 0 0 0 1.4375 0.9850000000000001c-0.65 2.1625 -1.705 6.3625 -2.665 10.447500000000002Zm-4.2125 224.3725c0.5850000000000001 -10.084999999999999 8.58 -14.6725 13.25 -22.442500000000003a1.25 1.25 0 0 0 -1.0274999999999999 -1.8925l-6.16 -0.21999999999999997 1.0174999999999998 -4.275c0.25 -1.02 -1.5 -1 17.0475 1.3875000000000002a7.325 7.325 0 0 0 -0.42250000000000004 4.6325c0.75 4.2 2.19 6.6725 4.375 7.8825 -14.350000000000001 3.3925 -20.3525 15.5025 -28.0775 14.9325ZM229.75 174.66000000000003c0.315 1.29 0.62 2.6025 0.8999999999999999 3.9375a41.5 41.5 0 0 0 -4.165 -3.5675c1.1075 -0.09 2.2 -0.22499999999999998 3.265 -0.37Zm-6.9275 0.8350000000000001a32.105000000000004 32.105000000000004 0 0 1 9.405 8.955c-3.5175 -1.18 -8.0525 -2.725 -11.3575 -3.9725a7.69 7.69 0 0 0 1.945 -4.9775Zm9.415 19.465c-1.8925 -2.4125 -5.8025 -6.407500000000001 -8.015 -8.625 0.0175 -0.5425 0.0675 -1.275 0.1175 -1.9425000000000001 2.615 0.9199999999999999 5.375 1.8525 7.635 2.6100000000000003 0.21499999999999997 2.7225 0.3025 5.380000000000001 0.255 7.9575Zm-13.855 -8.149999999999999c0.7625 0.53 2.23 0.8799999999999999 2.8875 1.2725 0.75 1.7199999999999998 1.4525 5.335 2.3625 7.7725a48.66 48.66 0 0 0 -7.015000000000001 -2.8975c0.48750000000000004 -1.7474999999999998 1.1325 -4.055000000000001 1.7574999999999998 -6.1475ZM213.25 195.6425a38.1625 38.1625 0 0 1 -12.467500000000001 -10.280000000000001 4.55 4.55 0 0 1 -0.77 -1.6125 6.407500000000001 6.407500000000001 0 0 1 0.765 -3.6575 15.337499999999999 15.337499999999999 0 0 0 15.93 3.5625c-1.075 3.4875 -2.7700000000000005 9.595 -3.4575 11.9875ZM180.1175 168.9225c-4.3025 -2 -14.34 -7.71 -14.6475 -17.5325a25.049999999999997 25.049999999999997 0 0 1 3.725 -13.1875 18.5475 18.5475 0 0 1 9.692499999999999 -9.5 30.6925 30.6925 0 0 1 3.825 -0.9225c7.13 -1.4000000000000001 11.4725 -6.17 19.195 -6.17a19.92 19.92 0 0 1 14.372499999999999 6.215000000000001 12.237499999999999 12.237499999999999 0 0 1 2.7350000000000003 11.675 11.23 11.23 0 0 0 -6.4625 -3.5999999999999996c-3.1525 -0.7875 -5.659999999999999 -3.0275000000000003 -9.5375 -3.3274999999999997a1.25 1.25 0 0 0 -0.7675 2.3025 6.015000000000001 6.015000000000001 0 0 1 2.0225 7.7175 9.85 9.85 0 0 1 -3.865 4.1575 6.527500000000001 6.527500000000001 0 0 0 0.18 -1.605A5.4174999999999995 5.4174999999999995 0 0 0 197 140.6a1.25 1.25 0 0 0 -1.5825 1.5825 4.825 4.825 0 0 1 -0.48 4.25 18.7775 18.7775 0 0 0 -2.0524999999999998 5.5 10.387500000000001 10.387500000000001 0 0 0 8.25 10.129999999999999 6.1425 6.1425 0 0 1 -4.65 0.0825c-1.6 -1.0675 -2.9125 -2.1174999999999997 -4.2 -3.1374999999999997 -1.9675 -1.9700000000000002 -6.8525 -2.4525 -8.2075 1.37a8.5175 8.5175 0 0 0 6.0625 10.015 10.3325 10.3325 0 0 0 6.959999999999999 -0.0975 8.3675 8.3675 0 0 1 0.7625 1.4674999999999998 34.667500000000004 34.667500000000004 0 0 1 -17.745 -2.84Zm18.66 -0.8825a1.25 1.25 0 0 0 -1.6300000000000001 -0.475 8.0375 8.0375 0 0 1 -6.237500000000001 0.46499999999999997 6.5175 6.5175 0 0 1 -4.6975 -5.92c0.195 -2.7675 3.25 -2.36 4.3975 -1.2349999999999999a55.56 55.56 0 0 0 4.6925 3.4725 9.075 9.075 0 0 0 10.8225 -3.165 1.25 1.25 0 0 0 -1.4050000000000002 -1.92 6.27 6.27 0 0 1 -5.772500000000001 -0.6775 8.299999999999999 8.299999999999999 0 0 1 -3.5775 -6.44 10.53 10.53 0 0 1 0.7174999999999999 -2.3000000000000003 1.25 1.25 0 0 0 1.25 0.5874999999999999c6.8675 -1.0574999999999999 12.21 -8.07 9.2025 -14.31a39.725 39.725 0 0 0 4.8375 2.0575c0.27 0.6025 1.25 1.0825 5.034999999999999 5.7925a5.659999999999999 5.659999999999999 0 0 0 -2.6100000000000003 3.1824999999999997 1.25 1.25 0 1 0 2.37 0.79 3.205 3.205 0 0 1 1.75 -1.9300000000000002 32.785000000000004 32.785000000000004 0 0 1 4.0975 8.75c1.3900000000000001 4.8549999999999995 0.535 11.3725 -4.615 14.205000000000002a1.25 1.25 0 0 0 -0.3975 1.845l3.3150000000000004 4.4125a6.75 6.75 0 0 1 -6.4275 6.515 11.799999999999999 11.799999999999999 0 0 1 -11.975 -4.25 23.285 23.285 0 0 0 -3.1424999999999996 -9.4525Zm-0.9650000000000001 16.9825c0.41500000000000004 1.1749999999999998 0.55 1.4449999999999998 2.4475 3.5949999999999998a51.25 51.25 0 0 0 -7.41 -1.83 16.685000000000002 16.685000000000002 0 0 0 4.9625 -1.765Zm5.15 7.3075a1.2349999999999999 1.2349999999999999 0 0 0 1 0c2.6224999999999996 2.3175 8.895 6.46 10.177499999999998 6.46a1.31 1.31 0 0 0 1.2825 -1.29c0 -0.515 -0.17 0.25 0.5 -2.135a52.207499999999996 52.207499999999996 0 0 1 16.1375 8.885 1.25 1.25 0 0 0 2.0125 -0.805 74.22749999999999 74.22749999999999 0 0 0 0.45999999999999996 -15.67 1.25 1.25 0 0 0 1.1575 -1.565 12.8525 12.8525 0 0 0 -1.8925 -3.9074999999999998 84.4525 84.4525 0 0 0 -1.935 -9.4825 44.725 44.725 0 0 1 5.154999999999999 -0.10999999999999999c0.07250000000000001 0.25 4.4475 7.2025 4.4475 20.9525a125.25 125.25 0 0 1 -2.2675 24.202499999999997 96.03999999999999 96.03999999999999 0 0 0 -15.905000000000001 -11.842500000000001 130.47750000000002 130.47750000000002 0 0 0 -51.3825 -16.3025 30.815 30.815 0 0 0 -3.25 -0.895c11.09 -1.0325 24.0475 -1.03 34.3025 3.505ZM106 322.86499999999995a1.25 1.25 0 1 1 0.64 -2.4175c22.6325 6 71.0375 9.25 108.91999999999999 -16.4825a1.25 1.25 0 1 1 1.4025 2.07c-23.777499999999996 16.15 -51.605 21.102500000000003 -74.855 21.102500000000003a146.065 146.065 0 0 1 -36.1075 -4.2725ZM192.5 475.5925c2.3400000000000003 4.0925 5.8925 5.5 9.855 8.1775 1.4224999999999999 0.7224999999999999 0.47750000000000004 2.2875 -2.3225000000000002 2.3075a22.360000000000003 22.360000000000003 0 0 1 -13.5 -2.5725 47.2175 47.2175 0 0 1 -7.9025 -7.515 1.25 1.25 0 0 0 -2.4625 -0.22499999999999998l-1.3050000000000002 5.885c-0.25 -0.13 -3.75 -1.92 -4.8 -2.4425 0.0925 -0.305 6.0725 -15.1875 7.567500000000001 -19.2725 1.8475 5.1375 7.3325 5.6825 11.412500000000001 3.2224999999999997A26.6575 26.6575 0 0 0 192.5 475.5925Zm52.6275 -184.77499999999998c-21.335 39.4475 -56.959999999999994 72.3825 -100.31750000000001 92.735a1.25 1.25 0 0 1 -1.0625 -2.2625c42.8775 -20.1275 78.1 -52.68 99.17999999999999 -91.66499999999999a1.25 1.25 0 0 1 2.2 1.1925Zm-1.7075 -52.300000000000004a59.4475 59.4475 0 0 0 -9.825000000000001 -11.0625c-19.87 -18.905 -52.75 -33.660000000000004 -53.52 -34.0625a126.175 126.175 0 0 1 41.9525 14.78 94.105 94.105 0 0 1 17.08 13.015 1.25 1.25 0 0 0 2.08 -0.6425000000000001 126 126 0 0 0 2.7750000000000004 -26.887500000000003 48.9825 48.9825 0 0 0 -4.0600000000000005 -20.75q2.4475 0.235 4.9275 0.72a81.30000000000001 81.30000000000001 0 0 1 -1.4074999999999998 64.89Zm98.69999999999999 -120.33500000000001a71.6325 71.6325 0 0 0 -8.27 -3.9225c-1.8475 -6.17 -2.6275 -8.6575 -2.9225000000000003 -9.719999999999999 -0.725 -2.615 2.9525 0.11249999999999999 4.17 4.382499999999999a1.25 1.25 0 0 0 2.3400000000000003 0.17250000000000001c1.0474999999999999 -2.3025 5.3225 -3.8175 8.145 -4.835a9.77 9.77 0 0 1 5.07 -0.97 55.5 55.5 0 0 0 -8.05 3.345 1.25 1.25 0 0 0 1.0225 2.2775 17.25 17.25 0 0 1 7.930000000000001 -1.56 7.3175 7.3175 0 0 1 4.5 0.6475c-3.035 0.42999999999999994 -6.2775 -0.63 -11.3475 2.5374999999999996a1.25 1.25 0 0 0 1 2.25 8.25 8.25 0 0 1 4.9399999999999995 0.0325 12.8425 12.8425 0 0 1 3.4549999999999996 1.07 17.2275 17.2275 0 0 0 -6.7325 0.38c-0.20750000000000002 0.09 -4.25 1.73 -5.2475000000000005 3.9124999999999996Z" fill="#000000" stroke-width="2.5"></path><path d="M473.315 28.375c-8.129999999999999 -8.125 -25.09 -12.9175 -41.8975 -6.3925 -0.22499999999999998 -0.03 -21.695 2.5300000000000002 -22.415 2.6224999999999996a10.607500000000002 10.607500000000002 0 0 0 -1.0474999999999999 -5.785C404.895 12.705 395 10.3925 388 11.555c-5.154999999999999 0.75 -22.4775 4.0775 -28.889999999999997 14.875a11.93 11.93 0 0 0 -1.9625000000000001 7.7975c-0.8599999999999999 0.4025 -1.75 0.75 -2.4175 1.0274999999999999a4.0325 4.0325 0 0 0 -2.485 2.25c-5.33 8.977500000000001 -16.4175 27.66 -23.55 37.9625a1.25 1.25 0 0 0 1.03 1.96c1.3375000000000001 0 62.195 -8.9725 76.39999999999999 -10.157499999999999a1.25 1.25 0 0 0 0.9025 -0.5 257.1675 257.1675 0 0 0 25.057499999999997 -42.365 41 41 0 0 1 27.642500000000002 -1.08c8.977500000000001 2.6374999999999997 17.2025 9.4575 16.677500000000002 18.9625 -1.08 9.1625 -8.774999999999999 14.602500000000001 -17.1275 18.5a1.2325 1.2325 0 0 0 -0.185 0.10749999999999998 5.797499999999999 5.797499999999999 0 0 0 -2.7350000000000003 0.06 14.552499999999998 14.552499999999998 0 0 0 -6.3 2.395 1.25 1.25 0 0 0 1.3850000000000002 2.0825 12.344999999999999 12.344999999999999 0 0 1 4.827500000000001 -1.9425000000000001 60.837500000000006 60.837500000000006 0 0 1 -6.3525 3.6225 1.25 1.25 0 0 0 1.1175 2.2375c4.6525 -2.3275 6.1075 -3.5875000000000004 4.93 -2.6075l-2.195 1.92a1.25 1.25 0 1 0 1.645 1.8825c2.555 -2.2225 5.4125 -4.41 6.16 -8.0875 8.8525 -4.367500000000001 16.18 -10.235000000000001 17.3175 -19.955000000000002a18.387500000000003 18.387500000000003 0 0 0 -5.5775 -14.1275Zm-112.065 -0.6725000000000001c5.8475 -9.845 22.222499999999997 -12.955000000000002 27.125 -13.6775 6.07 -1.0125000000000002 14.8925 1.025 17.3275 5.885a7.7175 7.7175 0 0 1 -0.057499999999999996 7.192499999999999c-3.8850000000000002 7.577500000000001 -18.807499999999997 12.467500000000001 -25.4375 13.84 -5.5825000000000005 1.155 -15.8475 0.25 -19.32 -4.215 -1.205 -1.555 -2.48 -4.185 0.3625 -9.025ZM393.1525 54.5c-8.129999999999999 2.395 -17.095 3.1824999999999997 -24.5525 -0.9099999999999999a20.7075 20.7075 0 0 1 -9.67 -11.407499999999999 1.25 1.25 0 0 1 2.4025 -0.6975 18.3025 18.3025 0 0 0 5.865 8.18c6 4.779999999999999 14.5 5.6025 25.25 2.4375 20.772499999999997 -6.1175 16.2025 -22.86 16 -23.57a1.25 1.25 0 0 1 2.4 -0.7025000000000001c0.05499999999999999 0.20750000000000002 5.510000000000001 19.845 -17.695 26.669999999999998Z" fill="#000000" stroke-width="2.5"></path></g></svg>