<svg xmlns="http://www.w3.org/2000/svg" fill="none" viewBox="0 0 200 200" height="200" width="200"><g id="remote-work-1--work-remote-work"><g id="laptop - big"><path id="vector" fill="#000000" d="M179.969 57.424c0.493 12.983 0.741 26.09 0.751 39.22 0.346 -0.359 0.679 -0.68 1.002 -0.956a1055.023 1055.023 0 0 0 -0.754 -38.302c-0.136 -3.595 -2.576 -6.672 -6.07 -7.658 -36.854 -10.398 -72.566 -16.236 -106.143 -17.354 -4.37 -0.155 -8.115 3.16 -8.517 7.525a373.874 373.874 0 0 0 -1.55 35.798c0.328 -0.12 0.659 -0.225 0.996 -0.313a372.646 372.646 0 0 1 1.55 -35.393 7.288 7.288 0 0 1 7.487 -6.618c33.496 1.115 69.128 6.941 105.905 17.317 3.075 0.868 5.222 3.574 5.342 6.733l0.001 0.001Z" stroke-width="1"></path><path id="vector_2" fill="#000000" d="M180.499 118.806c-0.045 2.259 -0.091 4.519 -0.15 6.776 0.299 -0.819 0.653 -1.616 1.058 -2.388 0.039 -1.605 0.07 -3.21 0.101 -4.816 -0.327 0.16 -0.669 0.292 -1.009 0.428Z" stroke-width="1"></path><path id="vector_3" fill="#000000" d="M171.421 60.582c0.572 15.064 0.766 30.314 0.598 45.557 0.418 -1.646 0.521 -3.429 1.045 -4.975a931.844 931.844 0 0 0 -0.644 -40.62c-0.121 -3.192 -2.287 -5.924 -5.389 -6.799 -32.464 -9.159 -63.92 -14.302 -93.495 -15.286 -3.884 -0.132 -7.205 2.805 -7.562 6.681a329.238 329.238 0 0 0 -1.362 29.945c0.334 0.037 0.667 0.085 1 0.14a327.764 327.764 0 0 1 1.358 -29.993 6.358 6.358 0 0 1 6.533 -5.774c29.495 0.981 60.871 6.112 93.257 15.25 2.683 0.757 4.557 3.118 4.662 5.875l-0.001 0Z" stroke-width="1"></path><path id="vector_4" fill="#000000" d="M156.84 132.939c-21.859 -4.14 -43.218 -8.906 -63.8 -14.231 -0.166 0.241 -0.418 0.49 -0.8 0.761 -0.103 0.072 27.404 7.389 63.079 14.201 0.581 -0.206 1.313 -0.195 1.521 -0.731Z" stroke-width="1"></path><path id="vector_5" fill="#000000" d="M171.8 118.783c-0.077 3.17 -0.167 6.337 -0.276 9.5 -0.082 2.367 -1.454 4.342 -3.38 5.359 -0.013 0.377 -0.036 0.757 -0.07 1.136 2.508 -1.078 4.347 -3.504 4.45 -6.461 0.101 -2.909 0.187 -5.823 0.261 -8.738a4.099 4.099 0 0 1 -0.983 -0.796h-0.002Z" stroke-width="1"></path><path id="vector_6" fill="#000000" d="m155.767 137.189 -67.916 -15.345a40.59 40.59 0 0 1 -1.702 0.69l72.298 16.489c-0.993 -0.457 -1.913 -1.057 -2.68 -1.834Z" stroke-width="1"></path><path id="vector_7" fill="#000000" d="m87.89 144.12 -22.309 -5.605a11.912 11.912 0 0 0 -5.872 0.024c-8.277 2.143 -8.748 2.023 -9.338 2.747 -0.292 0.357 -0.247 0.671 -0.194 0.827 0.174 0.518 0.82 0.672 1.29 0.787 0.482 0.119 16.643 4.789 20.42 5.836 2.175 0.604 4.458 0.548 6.6 -0.081 3.331 -0.98 6.524 -2.056 9.491 -3.197 0.638 -0.246 0.575 -1.171 -0.088 -1.338Zm-9.687 3.577c-2.01 0.59 -4.104 0.618 -6.05 0.076 -3.77 -1.046 -19.348 -5.543 -20.159 -5.764 -0.259 -0.07 -0.249 -0.442 0.013 -0.499 7.247 -1.58 9.312 -3.035 13.331 -2.025l21.396 5.376a125.756 125.756 0 0 1 -8.53 2.836Z" stroke-width="1"></path><path id="vector_8" fill="#000000" d="m156.993 141.636 -76.379 -17.387c-0.829 0.199 -1.601 0.355 -2.298 0.469l76.922 17.543a250.173 250.173 0 0 1 -7.143 2.785l-89.683 -21.959c1.149 -0.218 2.306 -0.416 3.458 -0.625a65.802 65.802 0 0 1 -1.833 -0.69c-8.767 1.638 -17.923 3.651 -25.374 5.507 -0.475 0.119 -0.513 0.783 -0.054 0.954 0.519 0.194 93.287 24.536 93.678 24.424 10.291 -3.011 19.976 -6.399 28.786 -10.072 0.448 -0.186 0.393 -0.841 -0.08 -0.949Zm-28.857 10.023c-8.616 -2.122 -84.345 -21.988 -91.369 -23.869a432.084 432.084 0 0 1 9.893 -2.283l90.005 23.515a312.978 312.978 0 0 1 -8.529 2.637Zm10.29 -3.21 -89.607 -23.411a404.97 404.97 0 0 1 7.373 -1.51l90.267 22.122a277.433 277.433 0 0 1 -8.033 2.799Z" stroke-width="1"></path><path id="vector_9" fill="#000000" d="M180.256 137.651c-0.337 -0.073 -0.675 -0.143 -1.011 -0.215a7.311 7.311 0 0 1 -5.59 3.795l-7.188 -1.624c-0.426 0.455 -0.871 0.75 -1.861 0.822l9.386 2.141c-12.606 5.174 -9.476 2.98 -4.558 2.931a291.05 291.05 0 0 0 6.488 -2.608c-0.164 1.175 -0.574 2.349 -1.988 3.072 0.439 0.103 0.855 0.221 1.244 0.353 1.251 -1.013 1.504 -2.024 1.858 -3.068a1.107 1.107 0 0 0 -0.835 -1.442l-0.411 -0.093c1.933 -0.748 3.547 -2.188 4.467 -4.062l-0.001 -0.002Z" stroke-width="1"></path><path id="vector_10" fill="#000000" d="M161.882 150.955c-12.86 5.189 -27.615 10.644 -43.504 14.401 -4.472 1.058 -9.302 1.025 -13.967 -0.092 -39.37 -9.431 -72.746 -21.266 -97.423 -30.524 -1.391 -0.522 -1.832 -2.032 -1.215 -3.229 0.182 0.344 0.473 0.626 0.864 0.773 26.01 9.757 58.861 19.411 97.639 28.694a31.54 31.54 0 0 0 14.566 0.014c14.922 -3.546 29.069 -7.695 42.083 -12.333 0.222 -0.641 0.833 -1.228 1.734 -1.718 -13.534 4.942 -28.282 9.331 -44.048 13.078a30.535 30.535 0 0 1 -14.103 -0.014c-38.738 -9.273 -71.549 -18.915 -97.52 -28.658 -0.587 -0.22 -0.552 -1.067 0.051 -1.239 16.127 -4.588 31.688 -8.281 47.305 -11.24a7.894 7.894 0 0 1 -0.92 -0.888c-10.128 1.953 -27.166 5.621 -46.659 11.167 -0.7 0.2 -2.198 1.717 -2.263 3.312a3.244 3.244 0 0 0 2.134 3.217c24.705 9.268 58.118 21.117 97.542 30.56 4.716 1.13 9.711 1.208 14.431 0.093 16.244 -3.842 31.284 -9.442 44.34 -14.729a6.242 6.242 0 0 1 -1.067 -0.646v0.001Z" stroke-width="1"></path></g><g id="table"><path id="vector_11" fill="#000000" d="m51.407 95.59 -5.12 0.87a0.5 0.5 0 0 0 -0.416 0.49l0 1.16c0 0.235 0.163 0.434 0.39 0.486a1111.391 1111.391 0 0 0 -2.188 34.87 1 1 0 1 0 1.998 0.094c0.538 -11.493 1.27 -23.129 2.17 -34.608l2.962 0.525c0.031 -0.708 0.183 -3.545 0.204 -3.886Z" stroke-width="1"></path><path id="vector_12" fill="#000000" d="m70.918 124.736 -0.3 2.869a1 1 0 0 0 1.989 0.208l0.302 -2.885a31.237 31.237 0 0 1 -1.991 -0.192Z" stroke-width="1"></path><path id="vector_13" fill="#000000" d="M156.624 137.942c-0.11 1.683 -0.227 3.369 -0.328 5.047a1 1 0 0 0 1.996 0.12c0.081 -1.342 0.176 -2.691 0.263 -4.037a9.846 9.846 0 0 1 -1.93 -1.13h-0.001Z" stroke-width="1"></path><path id="vector_14" fill="#000000" d="M117.577 98.022a63.57 63.57 0 0 1 -1.613 0.751l9.426 1.524c0.101 -0.041 0.894 -0.406 1.882 -0.709l-9.695 -1.566Z" stroke-width="1"></path><path id="vector_15" fill="#000000" d="m92.025 93.892 -13.49 -2.181c-0.04 0.323 -0.083 0.656 -0.129 0.992l11.185 1.808c0.792 -0.214 1.613 -0.416 2.434 -0.62Z" stroke-width="1"></path><path id="vector_16" fill="#000000" d="M161.382 105.519a0.5 0.5 0 0 0 -0.42 -0.484l-20.335 -3.287 -1.406 0.786 18.862 3.049 -25.102 5.058a19.485 19.485 0 0 0 -1.846 2.471 91.838 91.838 0 0 0 -13.056 -2.166c0.311 -0.544 0.652 -1.066 1.011 -1.574l-41.971 -7.461c-0.08 0.687 -0.155 1.392 -0.225 2.122l51.957 9.215c-0.405 3.965 -2.816 27.588 -4.006 39.832a1 1 0 1 0 1.99 0.194c1.212 -12.468 3.691 -36.747 4.026 -40.025l28.222 -5.687c-0.402 4.168 -0.775 8.357 -1.127 12.553 0.643 0.611 1.208 1.349 1.84 1.996 0.411 -5.012 0.852 -10.018 1.337 -14.992a0.5 0.5 0 0 0 0.249 -0.44c-0.005 -0.242 0.004 -0.918 0 -1.16Z" stroke-width="1"></path></g><g id="laptop"><path id="vector_17" fill="#000000" d="M114.108 94.95c-6.194 -0.72 -12.294 -1.706 -18.285 -3.003a1.335 1.335 0 0 1 -1.036 -1.088 64.892 64.892 0 0 1 -0.822 -12.154 1.34 1.34 0 0 1 1.296 -1.304c5.677 -0.179 11.792 0.386 18.408 1.798 0.57 0.122 1.001 0.593 1.06 1.173 0.455 4.411 0.744 8.815 0.877 13.212a1.34 1.34 0 0 1 -1.498 1.365Z" stroke-width="1"></path><path id="vector_18" fill="#000000" d="M119.654 95.974c-0.172 -5.7 -0.553 -11.445 -1.133 -17.075a2.227 2.227 0 0 0 -1.761 -1.95c-8.347 -1.781 -16.373 -2.562 -23.86 -2.33a2.232 2.232 0 0 0 -2.156 2.168 84.651 84.651 0 0 0 1.067 15.768c0.047 0.29 0.16 0.555 0.312 0.795a118.946 118.946 0 0 0 -11.693 3.512c-0.891 0.318 -1.024 1.853 0.083 2.188 5.617 1.702 13.205 3.852 22.097 5.381a7.312 7.312 0 0 0 3.378 -0.198c4.622 -1.415 8.744 -3.454 12.056 -5.092 0.576 -0.285 0.887 -0.941 0.81 -1.411a2.2 2.2 0 0 0 0.8 -1.756Zm-27.91 -19.159a1.23 1.23 0 0 1 1.187 -1.196c7.403 -0.232 15.353 0.543 23.62 2.308 0.528 0.113 0.92 0.545 0.975 1.075 0.578 5.606 0.957 11.327 1.128 17.003 0.016 0.526 -0.302 0.96 -0.744 1.15 -4.116 -0.588 -20.048 -2.874 -24.163 -3.765a1.226 1.226 0 0 1 -0.948 -0.994 83.666 83.666 0 0 1 -1.054 -15.58l-0.001 -0.001Zm13.926 25.276a6.38 6.38 0 0 1 -2.945 0.188c-8.352 -1.436 -15.497 -3.024 -21.254 -4.724a116.937 116.937 0 0 1 11.417 -3.369l23.623 3.801c-3.255 1.514 -6.895 2.892 -10.841 4.104Z" stroke-width="1"></path><g id="group"><path id="vector_19" fill="#000000" d="M87.183 97.189c0.108 0.032 -0.112 -0.021 0 0Z" stroke-width="1"></path><path id="vector_20" fill="#000000" d="M92.36 95.93a51.542 51.542 0 0 0 -3.593 1.036c-0.217 0.069 -0.198 0.384 0.026 0.427 15.236 2.914 15.4 3.377 16.337 3.043 4.131 -1.476 4.201 -1.465 4.163 -1.765a0.264 0.264 0 0 0 -0.219 -0.227C92.416 95.73 93.086 95.75 92.359 95.93Z" stroke-width="1"></path></g></g><g id="document"><path id="vector_21" fill="#000000" d="M141.212 100.991c-11.07 -2.364 -11.546 -2.921 -15.511 -1.371 -3.225 1.262 -6.364 2.954 -9.878 5.324a0.5 0.5 0 0 0 0.201 0.908l5.345 0.854c0.302 -0.295 0.606 -0.587 0.926 -0.862l-4.845 -0.778c3.026 -1.963 5.789 -3.41 8.615 -4.515 3.585 -1.403 3.962 -0.93 13.64 1.14l-3.261 1.825c0.449 0.125 0.896 0.256 1.34 0.399l3.568 -1.999a0.5 0.5 0 0 0 -0.14 -0.925Z" stroke-width="1"></path><path id="vector_22" fill="#000000" d="M131.135 113.611c-0.429 0 -5.252 -1.441 -13.102 -2.168a0.5 0.5 0 0 1 -0.388 -0.746c2.278 -3.989 5.924 -7.111 10.268 -8.791 0.12 -0.047 0.255 -0.035 0.386 -0.035 4.255 0 8.57 0.931 12.831 2.769a0.5 0.5 0 0 1 -0.021 0.927 19.447 19.447 0 0 0 -9.549 7.81 0.5 0.5 0 0 1 -0.423 0.234h-0.002Zm-12.221 -3.087a92.657 92.657 0 0 1 11.991 2.019 20.481 20.481 0 0 1 8.714 -7.442c-3.846 -1.509 -7.608 -2.228 -11.432 -2.228 -3.846 1.509 -7.11 4.207 -9.273 7.651Z" stroke-width="1"></path><path id="vector_23" fill="#000000" d="M134.784 106.287s-6.378 -1.379 -6.687 -1.432a0.5 0.5 0 0 1 0.17 -0.986c0.806 0.139 1.49 0.302 6.624 1.429 0.581 0.128 0.488 0.989 -0.107 0.989Z" stroke-width="1"></path><path id="vector_24" fill="#000000" d="M130.541 107.927c-0.248 0 -1.487 -0.425 -4.775 -1.003a0.5 0.5 0 1 1 0.173 -0.985c1.582 0.278 3.171 0.616 4.723 1.004 0.569 0.141 0.466 0.984 -0.121 0.984Z" stroke-width="1"></path><path id="vector_25" fill="#000000" d="M129.845 110.365c-0.236 0 -1.939 -0.472 -6.526 -1.28 -0.654 -0.115 -0.474 -1.105 0.174 -0.984 2.151 0.378 4.324 0.808 6.459 1.276 0.581 0.127 0.488 0.988 -0.107 0.988Z" stroke-width="1"></path></g><g id="chair"><path id="vector_26" fill="#000000" d="M88.275 121.654c-0.304 0.136 -0.611 0.27 -0.922 0.4a335.344 335.344 0 0 1 4.036 13.404c0.227 0.821 0.189 1.163 -1.042 1.088a68.471 68.471 0 0 1 -17.492 -3.344c-1.411 -0.468 -1.706 -0.757 -2.073 -2.431l-1.372 -6.268a36.438 36.438 0 0 1 -1.068 -0.202l1.463 6.683c0.447 2.043 1.005 2.593 2.735 3.166a69.445 69.445 0 0 0 17.748 3.393c1.673 0.101 2.54 -0.627 2.064 -2.353a335.669 335.669 0 0 0 -4.078 -13.538l0.001 0.002Z" stroke-width="1"></path><path id="vector_27" fill="#000000" d="M93.385 116.881c-1.327 -2.101 -3.863 -2.885 -6.347 -3.507 -3.298 -0.826 -6.659 -1.651 -10.064 -2.264 0.355 -15.816 4.449 -23 0.927 -29.316 -1.571 -2.818 -4.586 -4.932 -8.96 -6.28 -3.305 -1.02 -6.14 -1.277 -8.67 -0.787 -3.207 0.62 -5.869 2.509 -7.049 5.098 -2.249 4.932 -2.78 23.543 -2.711 28.962 0.064 4.997 0.674 8.976 4.952 11.46l-8.571 17.662c-0.828 1.702 -0.65 2.731 1.144 3.667 5.594 2.917 11.857 3.942 17.914 4.933 1.851 0.302 2.736 0.013 3.843 -2.083a257.898 257.898 0 0 0 9.195 -19.35c4.693 -0.841 10.192 -2.837 13.54 -5.199 1.2 -0.848 1.643 -1.754 0.858 -2.997l-0.001 0.001Zm-24.478 27.078c-0.895 1.692 -1.357 1.799 -2.797 1.562 -5.979 -0.978 -12.161 -1.99 -17.613 -4.833 -0.536 -0.279 -0.917 -0.539 -1.04 -0.896 -0.233 -0.676 -0.27 -0.205 8.89 -19.081 4.887 2.443 12.286 4.793 18.392 4.793 0.934 0 1.974 -0.085 3.075 -0.24a256.868 256.868 0 0 1 -8.907 18.695Zm-10.444 -23.37c-4.935 -2.1 -6.854 -3.955 -6.954 -11.816 -0.084 -6.567 0.63 -24.17 2.621 -28.535 1.028 -2.254 3.479 -3.98 6.33 -4.531 2.364 -0.458 5.042 -0.208 8.185 0.76 4.12 1.27 6.939 3.227 8.382 5.813 3.555 6.374 -1.439 14.84 -1.064 32.17 0.045 2.09 0.192 4.491 1.362 6.529 0.693 1.206 1.876 2.288 3.252 2.783 -6.028 1.627 -13.295 0.579 -22.114 -3.173Zm33.487 -1.529c-2.458 1.735 -5.64 3.103 -8.769 3.858 -0.103 -0.005 -3.108 0.837 -4.989 -2.437 -1.323 -2.304 -1.265 -5.506 -1.237 -8.359 3.324 0.606 6.612 1.413 9.84 2.221 2.288 0.573 4.615 1.282 5.745 3.071 0.359 0.568 0.41 0.939 -0.589 1.645l-0.001 0.001Z" stroke-width="1"></path></g><g id="plant"><path id="vector_28" fill="#000000" d="M169.644 144.994c-3.761 0 -8.876 0.88 -9.381 4.607 -0.327 2.413 -0.586 4.319 -0.566 6.849 0.04 5.042 1.48 8.264 8.53 8.746 4.865 0.332 8.593 -1.044 9.856 -5.733 0.79 -2.931 1.074 -6.135 0.893 -10.069 -0.158 -3.42 -5.908 -4.4 -9.332 -4.4Zm0 1c4.904 0 8.321 1.687 8.321 3.201 0 1.419 -3.003 2.991 -7.419 3.182 -0.294 0.013 -0.595 0.019 -0.902 0.019 -4.904 0 -8.321 -1.687 -8.321 -3.201s3.417 -3.201 8.321 -3.201Z" stroke-width="1"></path><path id="vector_29" fill="#000000" d="M159.986 140.139c-2.335 -0.698 -4.113 -1.845 -5.283 -3.406 -0.771 -1.03 -1.069 -2.6 0.004 -3.32 0.537 -0.361 1.237 -0.354 1.561 -0.539 -1.114 -1.896 -4.087 -3.532 -3.858 -6.347 0.049 -0.598 0.342 -1.181 0.764 -1.521 0.761 -0.614 1.388 -0.185 2.046 -0.016 -0.293 -1.113 -1.937 -3.986 -1.162 -5.587 0.372 -0.767 1.292 -1.216 2.433 -0.818 1.804 0.629 2.756 2.389 4.038 3.542l0.073 -0.366c0.269 -1.225 2.195 -1.931 3.668 0.014 1.999 2.64 1.203 6.319 1.768 6.66 -0.018 -0.016 0.038 -0.055 0.074 -0.082 1.055 -0.758 2.073 0.233 2.293 1.396 0.537 2.838 0.436 9.106 -2.201 10.733 -1.581 0.973 -4.404 0.2 -6.218 -0.342v-0.001Zm-5.935 -14.456c-0.345 0 -0.614 0.552 -0.644 0.925 -0.192 2.332 2.799 3.894 3.896 6.077 0.06 0.119 0.07 0.256 0.028 0.382 -0.332 1 -1.588 0.855 -2.066 1.175 -0.528 0.354 -0.146 1.377 0.239 1.891 1.039 1.387 2.643 2.412 4.769 3.048 1.13 0.338 4.129 1.236 5.407 0.449 2.064 -1.273 2.235 -7.066 1.745 -9.691 -0.078 -0.366 -0.305 -0.743 -0.508 -0.844 -0.086 -0.042 -0.141 0.013 -0.219 0.069 -1.023 0.735 -1.857 -0.197 -1.896 -1.431 -0.057 -1.819 -0.21 -3.882 -1.326 -5.356 -0.354 -0.467 -0.721 -0.738 -1.091 -0.805 -0.354 -0.062 -0.744 0.131 -0.804 0.403l-0.035 0.174c-0.08 0.416 -0.179 0.934 -0.64 1.097 -1.23 0.431 -2.661 -2.992 -4.743 -3.718 -0.642 -0.224 -1.045 -0.018 -1.204 0.31 -0.39 0.804 0.349 2.615 0.791 3.697 0.294 0.722 0.65 1.46 0.388 1.984 -0.494 0.99 -1.677 0.163 -2.086 0.163l-0.001 0.001Z" stroke-width="1"></path><path id="vector_30" fill="#000000" d="M170.445 117.733c-1.137 -2.046 -2.439 -4.778 -2.418 -7.761 0.018 -2.49 1.407 -3.364 2.685 -3.071 0.177 0.041 0.339 0.105 0.484 0.191 1.063 -2.715 0.573 -6.232 2.799 -8.463 1.014 -1.019 2.098 -0.395 2.485 0.938 0.074 0.254 0.175 0.599 0.322 0.801 3.056 -3.546 4.603 -5.701 7.001 -6.45 1.168 -0.365 2.71 -0.255 3.52 0.808 0.912 1.2 0.409 2.817 -0.131 4.091l-1.546 3.647c0.73 -0.339 1.519 -0.61 2.367 -0.644 1.347 -0.057 2.977 0.698 3.328 2.199 0.35 1.495 -0.692 2.804 -1.64 3.777 -1.34 1.376 -2.626 2.651 -4.209 3.851 0.801 0.187 1.551 0.834 1.54 1.734 -0.005 0.455 -0.206 0.842 -0.421 1.192 -2.048 3.323 -6.175 5.501 -11.323 5.977 -2.261 0.203 -3.739 -0.83 -4.843 -2.817Zm0.874 -0.485c0.987 1.777 2.15 2.468 3.877 2.306 4.832 -0.446 8.682 -2.452 10.563 -5.505 0.14 -0.228 0.27 -0.467 0.272 -0.68 0.005 -0.409 -0.495 -0.746 -0.945 -0.775 -0.598 -0.046 -1.21 0.256 -1.757 0.516 -0.574 0.267 -1.008 -0.556 -0.473 -0.879 2.557 -1.552 4.289 -3.242 6.128 -5.132 0.77 -0.791 1.623 -1.83 1.383 -2.852 -0.22 -0.943 -1.361 -1.473 -2.314 -1.428 -1.118 0.045 -2.208 0.64 -3.168 1.165a0.5 0.5 0 0 1 -0.7 -0.634l2.086 -4.923c0.462 -1.09 0.854 -2.31 0.256 -3.096 -0.516 -0.678 -1.591 -0.72 -2.426 -0.457 -2.135 0.666 -3.628 2.755 -6.818 6.468a0.5 0.5 0 0 1 -0.486 0.162c-0.849 -0.186 -1.117 -1.107 -1.277 -1.657 -0.121 -0.417 -0.353 -0.748 -0.524 -0.721 -0.101 0.016 -0.245 0.161 -0.292 0.209 -2.114 2.118 -1.372 5.961 -2.923 8.881 -0.21 0.396 -0.759 0.328 -0.907 -0.052 -0.191 -0.488 -1.828 -0.782 -1.846 1.814 -0.019 2.75 1.215 5.33 2.292 7.269l-0.001 0.001Z" stroke-width="1"></path><path id="vector_31" fill="#000000" d="M184.038 138.672c-1.877 0 -3.651 -0.506 -5.383 -0.852 -3.912 -0.781 -3.417 -4.645 -2.938 -8.38 0.254 -1.979 1.057 -3.674 2.26 -4.774 0.94 -0.858 1.879 -0.465 2.031 0.371a20.199 20.199 0 0 1 5.349 -7.748c1.035 -0.931 2.102 -0.439 2.021 0.68 -0.074 1.046 -0.778 1.904 -0.517 2.723 1.402 -1.423 3.824 -3.219 5.822 -3.236 1.222 -0.023 2.404 0.661 2.839 1.673 0.65 1.512 -0.374 3.132 -1.449 4.06 -0.804 0.694 -1.765 1.267 -2.419 1.989 1.408 0.208 3.299 -0.198 4.23 1.217 0.604 0.918 0.346 2.089 -0.178 2.843 -0.52 0.747 -1.296 1.234 -2.057 1.65a24.85 24.85 0 0 1 -7.192 2.59c0.272 0.951 1.335 1.943 1.083 3.222 -0.289 1.467 -1.982 1.972 -3.502 1.972Zm-5.026 -13.502c-0.018 0.012 -0.18 0.071 -0.36 0.235 -1.028 0.94 -1.718 2.419 -1.942 4.163 -0.533 4.153 -0.654 6.714 2.142 7.273 1.759 0.35 3.575 0.872 5.394 0.83 0.966 -0.022 2.152 -0.339 2.314 -1.163 0.192 -0.973 -1.165 -2.035 -1.164 -3.435 0 -0.243 0.175 -0.451 0.415 -0.492a23.823 23.823 0 0 0 7.36 -2.57c0.756 -0.413 1.336 -0.799 1.716 -1.343 0.321 -0.461 0.509 -1.197 0.164 -1.722 -0.706 -1.073 -2.849 -0.38 -4.428 -1.006a0.501 0.501 0 0 1 -0.243 -0.726c0.759 -1.243 2.031 -1.909 3.041 -2.781 0.883 -0.763 1.592 -1.958 1.183 -2.908 -0.274 -0.637 -1.109 -1.067 -1.912 -1.068 -1.826 0.016 -4.26 1.977 -5.492 3.333 -0.519 0.571 -1.719 -0.485 -1.313 -2.16 0.132 -0.545 0.578 -1.542 0.488 -1.875 0.008 0.047 -0.168 0.115 -0.351 0.279a19.196 19.196 0 0 0 -5.511 8.591c-0.195 0.63 -1.575 0.508 -1.487 -1.025 0.007 -0.128 0.021 -0.368 -0.015 -0.429l0.001 -0.001Z" stroke-width="1"></path><path id="vector_32" fill="#000000" d="M167.463 148.703c0.278 -1.594 -0.156 -4.599 -0.473 -6.142 -0.881 -4.283 -2.539 -8.171 -4.571 -12.011 -1.021 -1.93 -2.073 -3.911 -3.392 -5.657 -0.222 -0.294 -0.656 -0.051 -0.498 0.291 1.909 4.105 6.811 11.059 7.91 20.443 0.119 1.019 0.112 2.066 0.29 3.076 0.064 0.363 0.671 0.364 0.735 0h-0.001Z" stroke-width="1"></path><path id="vector_33" fill="#000000" d="M181.833 100.789c-1.38 1.523 -3.8 6.6 -4.648 8.472 -3.899 8.6 -6.531 18.368 -7.577 28.489 -0.269 2.604 -0.728 8.455 -0.306 11.039 0.077 0.47 0.707 0.285 0.758 -0.103 0.383 -2.915 -0.214 -8.607 1.88 -19.389 1.667 -8.582 4.427 -16.67 7.776 -23.52 0.779 -1.594 1.798 -3.16 2.362 -4.845 0.046 -0.138 -0.148 -0.249 -0.245 -0.143Z" stroke-width="1"></path><path id="vector_34" fill="#000000" d="M189.178 122.673c-3.149 1.547 -7.345 5.938 -9.524 8.688 -4.838 6.105 -7.486 12.967 -8.085 17.66 -0.054 0.424 0.618 0.488 0.729 0.099 1.141 -3.995 2.368 -7.873 4.393 -11.526 4.832 -8.716 10.881 -12.691 12.748 -14.583 0.177 -0.18 -0.046 -0.443 -0.26 -0.337l-0.001 -0.001Z" stroke-width="1"></path></g></g></svg>