<svg xmlns="http://www.w3.org/2000/svg" viewBox="0 0 200 200" height="200" width="200"><g fill="#000000" fill-rule="evenodd"><path d="M104.67 96.23c-0.31 -2.1 0 -1.49 -0.35 -1.89 -0.24 0.2 -0.19 0.12 -0.24 0.37a8.94 8.94 0 0 0 0.46 4.9c0.06 0.11 0.76 2.58 1.83 3.49l0.27 -0.24a30.9 30.9 0 0 1 -1.97 -6.63z" stroke-width="1"></path><path d="M117 133.52c-1.44 3.57 -2.37 45.66 -2.42 52.08 0 2.73 -0.05 2.74 0.16 3s3 0.57 6.61 0.75a3.49 3.49 0 0 0 6.31 2.2 3.9 3.9 0 0 0 0.55 -1.95c5.83 0.16 11.75 0.22 13.68 0.23a3.93 3.93 0 0 0 0.75 2c1.57 1.93 5.76 1.61 6 -2a7.3 7.3 0 0 0 2.4 -0.26c0.83 -0.22 11 -3.46 11.82 -3.91 0.46 -0.22 0.59 -1.45 0.67 -2 1 -6.71 1.81 -33.14 1.18 -42.41 -0.24 -3.49 -1.5 -6 -4.65 -7.87a14.56 14.56 0 0 0 -7.09 -1.71 24.38 24.38 0 0 0 -2.77 0.16c0 -3.89 -0.16 -7.43 -0.35 -11.49 -0.61 -13.5 -0.12 -13.94 -1.36 -17.84a3 3 0 0 0 -2.89 -2.3c-0.42 -1 -0.64 -0.77 -3.27 -0.77a16.33 16.33 0 0 0 -1.33 -4.15c-1.39 -2.8 -3.61 -4 -5.5 -5.86 -4.39 -4.33 -8.87 -8 -11.31 -10.51 -2.84 -2.91 -6.78 -11.41 -9.19 -15.37 -4.64 -7.48 -6 -14.1 -20.83 -15.76 -0.38 -2 0 0.06 -0.88 -4.57a10.84 10.84 0 0 0 4 -4.29c0.18 -0.34 0.05 -0.24 0.35 -0.3a6 6 0 0 0 2.89 -1.62 2.16 2.16 0 0 0 1.56 -0.27c3.25 -1.94 4.72 -5.6 5.4 -9.3a9.12 9.12 0 0 0 -1 -7.08c3.42 0.41 7 -3.37 6.12 -8.62 -1.37 -7.74 -13.47 -9 -15.92 -2.66a5.44 5.44 0 0 0 0 4.42c-3.59 0 -6.49 2.61 -7.09 3a4.73 4.73 0 0 0 -3.16 -0.09c-3.5 0.9 -6 4.75 -6.86 8.3 -0.5 2 -1.06 4.46 0.5 4.56 -0.39 1.06 -0.71 2.07 -0.92 2.86a10.48 10.48 0 0 0 -0.28 5.12 9.12 9.12 0 0 0 5.28 6.36 7.08 7.08 0 0 0 1.68 0.46c-0.12 0.64 -0.37 2.25 -0.75 3.57 -11.37 0.85 -20.29 10.59 -23.72 16.94 -1.89 3.47 -4.31 11 -4.42 16A17 17 0 0 0 58 87.09c-1.89 2.45 -15.63 20.51 -16.37 21.55 -1.7 2.4 -5.43 6.5 -5 9.11a6.47 6.47 0 0 0 0.36 1c-0.11 0 -0.23 0.06 -0.62 0.34 -1.95 1.24 -1.26 4.6 0.78 0a13.72 13.72 0 0 0 1.33 2h-0.17c-3.68 4 -0.32 3.3 0.31 0.18v-0.08a23.32 23.32 0 0 0 1.83 2c-0.11 0 -0.17 0.05 -0.47 0.3 -2.07 1.76 -1.84 4.32 -0.16 1.56a4.18 4.18 0 0 0 0.81 -1.69 21.12 21.12 0 0 0 1.82 1.64 1.79 1.79 0 0 0 -0.39 0.31c-1.34 1.22 -1.49 4.73 0.06 1.57a7.91 7.91 0 0 0 0.64 -1.65 18 18 0 0 0 1.87 1.19 3 3 0 0 0 -0.53 0.76c-1.18 2.72 0.28 3.27 1.11 -0.46 3.11 1.52 2.37 0.19 1.74 1.71 -0.93 2.25 0.24 3.44 1 -0.72 0.66 0.14 1.54 0.28 2.55 0.4a3.06 3.06 0 0 0 -0.57 1.11c0 1.68 -0.23 4.55 0.88 0.23a5.9 5.9 0 0 0 0.14 -1.28c0.59 0.07 1.22 0.13 1.87 0.19a4.17 4.17 0 0 0 -0.57 1.55c-0.66 3.07 1.14 2 1.12 -1.5 3.08 0.24 3.07 0.09 2.91 0.19a3.63 3.63 0 0 0 -0.56 1.13c-0.69 2.28 0 3 0.67 1a4.13 4.13 0 0 0 0.24 -2c-0.15 -0.25 -0.29 0 2.64 -0.13a4.8 4.8 0 0 0 -0.43 1.38 9.14 9.14 0 0 0 -0.28 1.91c0 0.31 0 0.2 0.09 0.49 0.68 -0.31 1 -1.65 1.11 -2.38a3.85 3.85 0 0 0 0 -1.42 17.65 17.65 0 0 0 2 -0.23c-1.63 14.23 -3.46 30.16 -4.36 38l-1.18 -0.1a0.45 0.45 0 0 0 -0.48 0.36c-0.26 1.21 -1.33 4.63 -0.85 5.49s1.93 1 2.85 1.18c-0.62 3.57 -0.87 8.1 -2 9.19 -1.58 1.38 -4.67 1.32 -7.32 2.84 -1 0.55 -1.48 1.59 -0.46 2.09 1.64 0.79 7.65 1.44 9.44 1.54a11.05 11.05 0 0 0 3.59 -0.25c1.78 -0.57 0.86 -1.2 3.87 -14.09 2.84 0.33 3.63 0.13 4 -2.71 0.1 -0.67 0.59 -2 0.29 -2.79 -0.07 -0.19 -0.18 -0.5 -1 -0.87 3.24 -9.26 10.21 -30.51 15.93 -47.1 3.53 29.67 5 42.78 5.65 48.58h-0.42a0.46 0.46 0 0 0 -0.44 0.41c-0.13 1.12 -0.73 3.78 -0.23 4.46s1.68 0.61 2.4 0.69c-0.22 3 -0.26 5.49 -0.33 6.06 -0.33 2.72 -1.49 5.32 0.77 7.78a39 39 0 0 0 3.33 3c1.31 1.12 3.53 3.39 4.91 2.79a1.34 1.34 0 0 0 0.64 -1.47c-0.16 -1.69 -2.56 -5 -3.3 -6.8 -0.4 -1 -0.45 -1.09 -0.31 -3.1 0.06 -0.89 -0.11 0.39 0.28 -7.88 2.47 0 3.22 -0.15 3.34 -2.57 0 -0.52 0.33 -1.61 0 -2.27a1.5 1.5 0 0 0 -0.88 -0.58C110.74 121 112.21 110.62 111.54 99a148.6 148.6 0 0 0 -1.74 -15.23c5.72 8.69 15.12 11.42 23.09 15.34a2.12 2.12 0 0 1 0.63 0.94 8.41 8.41 0 0 0 -2.9 0.67c-0.06 0.28 -0.13 0.64 -0.21 1a4.45 4.45 0 0 0 -4 2.89c-0.9 2.35 -0.73 5.15 -0.82 7.74 0 1.7 -0.41 4.86 -0.7 13.19 -0.13 3.82 0 5.94 0 7.57 -4.7 0.21 -7.8 0.31 -7.89 0.41zm29 -32.27a1.84 1.84 0 0 1 1.58 1.33c1.23 3.18 1 6.94 1.13 9.87 0.12 3.33 0.87 12 1.1 19.43 -0.51 0 -1.12 0.1 -1.88 0.15 0.17 -4.4 -0.27 -12.09 -0.42 -15.89s0.09 -10.23 -1.57 -11.82a15.56 15.56 0 0 0 0.06 -3.07zM85.36 47.88c0.07 -0.24 1 -3.85 0.83 -4.12a8.33 8.33 0 0 1 -2.74 -1c-5 -3.33 -5 -7.23 -2.66 -13.43a16.86 16.86 0 0 0 6 -1.73 7.07 7.07 0 0 0 0.76 -0.7 6 6 0 0 0 1.15 0.29 6.76 6.76 0 0 0 5.47 -1.86c0.34 0.9 1.88 5.52 2.25 6.6 0.56 1.64 0.6 1.87 1.3 2.11 1 0.27 1.53 0 1.73 1a4.43 4.43 0 0 0 0.36 1.43 5.27 5.27 0 0 1 -2.22 1.24c-0.62 0.15 -0.75 -0.06 -1 0.47a10.16 10.16 0 0 1 -2.06 2.91c-1.79 1.77 -2.37 1.22 -2.2 2.16 1.06 5.67 0.81 4 1 4.93 0.09 0.64 0.22 0.35 3.56 0.86 -0.84 2 -7 16.21 -8.51 17.22 -1.2 -1.15 -5.19 -14.58 -6.21 -17.74 -0.17 -0.29 3.09 -0.39 3.19 -0.64zm-26.2 23.23a24 24 0 0 1 2.84 -6.9 38.16 38.16 0 0 1 10 -10.66 51 51 0 0 1 4.94 -3.35A23.51 23.51 0 0 1 74 61c-4.74 8.77 -5.57 6.59 -7.53 23.38 -0.72 6.23 -0.69 6 -0.57 6.22 0.51 0.93 3.18 2.55 3 3.62a10.6 10.6 0 0 1 -1.86 4 20.43 20.43 0 0 1 -1.67 -2c-7.09 -7.67 -9.97 -12.35 -6.21 -25.11zm16.9 -12.49a36.93 36.93 0 0 1 -2.27 7.81c-1.54 2.9 -3.43 6.69 -5.36 10.44a47.38 47.38 0 0 1 1.25 -6.07c1.16 -3.61 4.48 -7.28 6.38 -12.18zm-18.65 63.44c-0.31 0.33 -2.09 0.65 -1.37 -1.2a14.15 14.15 0 0 0 3.25 -5c2 -5.53 1.65 -12 2.57 -9.72 0.14 6.03 -0.29 11.44 -4.45 15.92zm-4.74 62.65c1.26 -0.34 0.06 -0.28 1.68 1 -1.79 -0.11 -3.07 -0.15 -4.13 -0.22 0.92 -0.38 1.93 -0.64 2.45 -0.78zm8.58 2.91c-1.74 1.35 -12.88 -0.85 -12.79 -1.11a2.57 2.57 0 0 1 1 -0.71 36.77 36.77 0 0 0 6.8 0.92 22.65 22.65 0 0 0 5.49 -0.16 2.53 2.53 0 0 1 -0.5 1.06zm2.36 -10c-2.17 8.78 -1.26 5.5 -1.82 8.53 -1.29 0 -4.18 -0.26 -6.16 -0.4a5.42 5.42 0 0 0 -1.6 -1.46c2.78 -0.9 3.17 -1.75 3.67 -4.42 0.43 -2.31 0.57 -4.3 0.88 -6.46a42.58 42.58 0 0 0 5.82 1c-0.25 1.03 -0.49 2.02 -0.79 3.23zm4.84 -8.28a8.1 8.1 0 0 1 -0.35 2.45c-0.29 2 -0.58 2.14 -2.82 1.86a49.12 49.12 0 0 1 -7.08 -1.29c-0.6 -0.18 -2.2 -0.32 -2.44 -0.76s0.71 -3.92 0.85 -4.49c5.51 0.46 11.49 1.43 11.84 2.25zm28.62 23.39c-0.11 -0.13 -3.26 -2.74 -3.87 -3.32a5.91 5.91 0 0 1 -2 -2.87c2.15 3.07 4.93 4.75 7.86 7 0.45 0.34 0.66 0.12 0.27 -0.3A29.7 29.7 0 0 0 97 191a2.93 2.93 0 0 0 1.46 -0.15c1.8 3.33 1.66 4.33 -1.39 1.9zm-0.23 -4.81c0.21 0.41 0.76 1.32 1.31 2.31a3.46 3.46 0 0 0 -2 0c-5.58 -4.57 -4.76 -4.26 -5 -4.27a19.82 19.82 0 0 1 0.34 -3.31c0.26 -1.86 0.18 -4.08 0.3 -7.34a35.54 35.54 0 0 0 4.77 0.35c-0.16 1.67 -0.41 5.1 -0.44 6.84 -0.12 2.74 -0.69 2.68 0.72 5.44zm2.86 -16.71a6.77 6.77 0 0 1 -0.1 1.89c-0.07 1.5 -0.24 1.65 -2.09 1.62a42.33 42.33 0 0 1 -6 -0.39c-0.48 -0.07 -1.83 -0.08 -2 -0.33a17.07 17.07 0 0 1 0.33 -3.45c5.62 -0.16 9.48 0.22 9.86 0.68zm11.16 -63.77c-0.77 12.11 -8.66 47.77 -12.08 62.54a43.34 43.34 0 0 0 -8 -0.37s-5.88 -50.78 -6.14 -50.92c0 -0.11 0.3 -10.24 0.21 -14.09 -0.07 -3.1 0.15 -2.41 -0.13 -2.78l-0.21 0.15a84.54 84.54 0 0 0 -0.6 17.3c-0.26 0.25 -15.91 46.91 -16.47 48.57a54.94 54.94 0 0 0 -9.14 -1.48c1.7 -15.06 3.08 -27.67 4.21 -38.26a1.62 1.62 0 0 0 1.27 -1.25c3.21 -10.05 1.72 -24.46 2.06 -28.7a2.49 2.49 0 0 0 0.94 0.84c-0.69 0.93 -0.1 0.65 0 0.59 1.39 -0.82 3.81 -4.51 3.81 -7.92 -0.14 -0.34 -0.12 -0.56 -0.88 1.58 -0.06 0.16 0.27 0 -1.92 -2 7 -14.81 11.06 -23.26 12.75 -36.2 0.07 -0.53 0.36 -2.94 0.36 -3.16a26.55 26.55 0 0 0 -0.12 -3.21l0.88 -0.19c0.53 2 4.61 16.28 6 18.14 0.31 0.41 0.59 0.44 0.91 0.3 1.92 -1.16 8.3 -15.71 9.18 -17.9a24 24 0 0 1 5.49 1.62c0.26 0.11 0.07 -0.22 0 2.53 -0.29 11.77 2.13 13.1 4.08 21.91 2.14 9.45 4.14 22.81 3.54 32.38zm9.66 -15.28c-4.57 -2.71 -8.56 -6 -11.08 -10.56 -1.89 -10.54 -3.4 -13.17 -4.37 -16.75a68.66 68.66 0 0 1 -1 -14c5 2.72 6.14 5.45 9.9 12.11 3.94 7 6.87 13.08 8.87 15.58 1.48 1.86 7 6.62 10.13 9.57 1.37 1.29 1.44 1.5 2.91 2.8 2.6 2.31 4.71 3.6 5.75 8.86a4.1 4.1 0 0 1 -0.36 3.32c-0.28 0.35 -0.37 0.32 -0.65 0 -0.93 -1.13 0 -1.62 -1 -2.62 -0.78 1.9 -0.4 2.69 -1.39 3 -1.08 0 -0.44 -1.19 -1.23 -2.91 -0.11 0 -0.25 -0.4 -0.37 0.16 -0.16 0.72 0.16 3.85 -1.35 2.55 -1 -0.71 -0.09 -3.1 -1.5 -4.66 -0.78 -0.7 -9.55 -4.23 -13.26 -6.43zM130.63 106c0.76 0.68 14.32 0.88 15 -0.59 1.07 2.3 0.88 6.34 1 9 0.26 5.18 0.93 12.51 0.89 17.68 -6.11 0.43 -13.81 0.76 -19.91 1a177.29 177.29 0 0 1 0.89 -18.58c0.32 -3.44 -0.31 -7.25 2.13 -8.51zm-4.34 9.73c0.66 -8 -0.33 -12.09 4 -12.94a7 7 0 0 0 0 2.5 3.11 3.11 0 0 0 -1.71 1.81 12.28 12.28 0 0 0 -0.67 4.27c-0.16 5.42 -0.38 5.4 -0.66 13.68 -0.13 4 0.12 5.51 0.05 8l-1.89 0.07c-0.08 -1.63 -0.12 -5.12 0.88 -17.39zm24.14 73.06c-1.16 0.29 -35 0 -35 -0.89 -0.14 -6.26 0.5 -48.34 1.86 -54.05 0.05 -0.22 25.15 -0.54 33.37 -1.36 -0.17 9.86 -0.3 54.35 -0.23 56.3z" stroke-width="1"></path><path d="M126.62 144.72c-0.66 9.34 -0.57 25.84 -0.57 34.6 1 1 0.74 -0.57 0.84 -3 1.41 -34.44 1.65 -32.1 1.65 -32.61 -1.27 -1.65 -1.78 -1.08 -1.92 1.01zm11.28 0.22c-0.66 9.32 -0.57 25.92 -0.57 34.59 1 1 0.74 -0.57 0.84 -3 1.42 -34.54 1.65 -31.91 1.65 -32.6 -0.1 -0.03 -1.65 -2.86 -1.92 1.01zM85.55 36.54c0 -0.1 0.54 -0.1 0 -0.41 -0.41 -0.21 -0.9 -0.66 -0.83 -0.92 0.19 -0.41 1 -1 1.43 -1.4a6.64 6.64 0 0 0 1.94 -3.24c-0.17 -0.27 0 -0.55 -0.8 0.54a25.42 25.42 0 0 1 -1.92 2.2c-0.85 0.7 -1.85 1.48 -1.31 2.39a2.23 2.23 0 0 0 1.49 0.84zm4.39 -1.85c0.08 -0.16 0.22 -0.36 0.33 -0.55a0.46 0.46 0 0 0 -0.79 -0.46 6.27 6.27 0 0 0 -0.36 0.62 0.45 0.45 0 0 0 0.82 0.39zm-6.2 -2.6a0.45 0.45 0 0 0 -0.78 -0.46c-0.13 0.21 -0.26 0.45 -0.41 0.74A0.46 0.46 0 0 0 83 33c0.35 0 0.38 -0.31 0.74 -0.91zm3.46 6.77c0 -0.2 0.33 -0.42 -0.66 -0.16 -0.11 0 -1.09 0.24 -1.46 0.28s-1.56 0.08 -1.71 0.08c-1.7 -0.06 2.03 2.09 3.83 -0.2zm-7.31 34.56c-0.32 0 -2 6.88 -1.62 13a8.62 8.62 0 0 0 1.62 5.19c3.82 5.28 14.25 4.67 17.38 -1.41 1.21 -2.35 3.26 -14.24 1.66 -15.85 -0.1 -0.06 -18.93 -0.93 -19.04 -0.93z" stroke-width="1"></path></g></svg>